<?xml version="1.0" standalone="no"?>
<!DOCTYPE svg PUBLIC "-//W3C//DTD SVG 1.1//EN" "http://www.w3.org/Graphics/SVG/1.1/DTD/svg11.dtd" >
<svg xmlns="http://www.w3.org/2000/svg">
<metadata>
Created by FontPrep 20130207 at Sat Oct 25 00:00:29 2014
 By Adam Fathony
Copyright (c) 2014 by Adam Fathony. All rights reserved.
</metadata>
<defs>
<font id="5d5594379058e51872986e016143b6cd" horiz-adv-x='1024' >
  <font-face 
    font-family="MaremaTypeface"
    font-weight="400"
    font-stretch="normal"
    units-per-em="2048"
    panose-1="0 0 0 0 0 0 0 0 0 0"
    ascent="1638"
    descent="-410"
    x-height="1325"
    cap-height="1614"
    bbox="-854.918 -703.8 3014.13 2216"
    underline-thickness="102"
    underline-position="-102"
    unicode-range="U+000D-FB02"
  />
<missing-glyph horiz-adv-x="622" 
 />
    <glyph glyph-name="r_o" unicode="ro" horiz-adv-x="1744" 
d="M1339 936q0 -88 -62 -155t-153 -58q-33 4 -53 30q-20 27 -17 59t28 52q26 20 50 18q45 -3 48 62q0 40 -27 60t-59 16q-106 -16 -146 -108t-19 -220q22 -128 106 -214q85 -85 208 -91q133 2 227 118q94 117 94 293t-121 296q-122 120 -274 77q74 -23 122 -85t48 -150z
M1246 1341q196 1 337 -163t141 -394t-141 -393q-141 -164 -342 -164h-4q-180 8 -307 131t-160 320q-20 125 10 241q31 116 117 185q-20 49 14 88q139 149 335 149zM580 1038q0 52 -41 90q-41 37 -101 35h-196v-286q52 19 150 39t143 45t45 77zM242 401q34 1 58 -25t22 -60
t-26 -54t-56 -20h-154q-32 0 -56 20t-26 54t21 60t57 25v762q-34 0 -58 26q-24 27 -22 59t27 54t55 21h352q127 2 215 -82t88 -209q0 -160 -166 -229q18 -33 95 -206q143 -320 310 -404q115 -60 255 -62q209 0 344 82q51 29 88 -5t33 -72t-37 -58q-174 -106 -428 -107
q-307 0 -506 222q-109 121 -227 391q-57 139 -88 172l-11 -2q-145 -35 -159 -54v-299z" />
    <glyph glyph-name="r_u" unicode="ru" horiz-adv-x="1746" 
d="M598 1038q0 52 -41 90q-41 37 -100 37h-197v-286q56 17 152 37t141 45t45 77zM1204 -29q-307 0 -493 224q-104 127 -205 393q-57 145 -78 168q-145 -27 -168 -56v-299q32 1 56 -23t24 -58t-23 -56q-23 -23 -57 -22h-160q-32 0 -56 24t-24 56t24 56t56 23v764
q-36 0 -58 24q-22 25 -22 57t24 56t56 23h355q129 2 216 -83t87 -210q0 -160 -170 -229q24 -45 62 -149q75 -210 172 -345q127 -178 382 -178q127 0 261 39t186 86q27 20 59 16t53 -30q21 -27 17 -59t-31 -52q-60 -60 -227 -110q-166 -50 -318 -50zM834 1165q-35 0 -58 24
q-22 25 -22 57t23 56q24 24 57 23h159q33 1 57 -23t24 -57t-24 -57t-57 -23v-366q0 -240 51 -330t228 -90q86 0 148 50t67 110v626q-33 0 -57 24q-24 25 -23 57q0 32 24 56t56 23h160q33 1 57 -23t22 -57q0 -33 -24 -57t-55 -23v-628q0 -121 -111 -219t-270 -99
q-159 0 -273 73q-45 30 -78 84t-55 115t-24 150q-2 90 -2 158v366z" />
    <glyph glyph-name="t_t" unicode="tt" horiz-adv-x="1087" 
d="M1245 1606q33 0 57 -24t24 -56t-24 -57q-24 -24 -57 -23q-158 0 -297 -45v-998q33 1 57 -23q23 -24 23 -56t-22 -57q-22 -24 -58 -23h-160q-32 0 -56 24t-23 56q-1 32 23 56t56 23v930q-180 -86 -280 -114v-816q32 1 56 -23t24 -56t-24 -57q-24 -24 -56 -23h-160
q-32 0 -56 24t-24 56t24 56t56 23v783q-109 -18 -248 -19q-32 0 -56 24q-24 23 -24 57t23 57t57 22q140 0 264 25q124 26 181 48t155 68t155 69q59 25 165 47t225 22z" />
    <glyph glyph-name="r_s" unicode="rs" horiz-adv-x="1572" 
d="M598 1038q0 52 -41 91q-41 38 -100 36h-197v-286q39 13 142 35t150 47q46 25 46 77zM1063 412q76 0 76 75q0 41 -34 75q-35 34 -93 34t-106 -48t-48 -126t60 -142t147 -73q155 -2 233 89q78 90 78 188t-60 156t-160 116t-139 83q-179 113 -178 257q1 108 69 174
q69 66 159 70t178 -33q4 27 27 45q24 18 54 18t54 -24t23 -56v-243q0 -33 -24 -57q-25 -24 -57 -24t-56 24q-24 22 -23 57v45q-51 90 -147 90t-97 -80q1 -46 47 -86t130 -88t117 -68q34 -20 87 -63q156 -127 156 -301q0 -209 -156 -340q-129 -111 -297 -111q-214 0 -327 125
q-60 66 -100 138t-91 198q-51 127 -90 181t-98 56q-98 -20 -117 -43v-299q32 1 56 -23t24 -58t-23 -56q-23 -23 -57 -22h-160q-32 0 -56 24t-24 56t24 56t56 23v764q-32 0 -56 24q-24 25 -24 57t23 56t57 23h355q127 4 215 -81t88 -212q0 -161 -170 -231q59 -68 131 -250
l2 -2q37 92 119 149q82 58 190 58t189 -81q79 -81 79 -185t-68 -172q-68 -67 -167 -66q-57 0 -81 29t-18 63t31 52q27 19 60 16h8z" />
    <glyph glyph-name="e_s" unicode="es" horiz-adv-x="1521" 
d="M976 594q-60 0 -111 -55q-50 -55 -40 -140h201q34 0 56 24q22 25 22 63t-34 73t-94 35zM100 240q-32 0 -56 24t-24 56t23 56t57 23v766q-36 0 -58 24q-22 25 -22 57t24 56t56 23h566q32 1 56 -23t23 -57v-86q1 -33 -23 -57t-56 -23q-32 0 -57 24q-24 24 -23 62h-326v-336
q119 80 283 80q35 -1 57 -23t23 -56q0 -34 -24 -58t-56 -22q-150 0 -224 -78q-57 -57 -59 -148v-125h406q-12 147 85 251t224 104t208 -81t81 -187t-70 -177q-70 -70 -168 -69h-102q59 -37 125 -37q137 0 215 92q78 93 78 189t-61 154q-60 58 -162 116q-101 58 -137 83
q-36 23 -84 65q-95 82 -93 198q0 76 40 133q77 109 232 105q72 -1 131 -33q6 29 29 46t53 17t55 -24q24 -24 23 -56v-244q0 -32 -24 -56t-57 -24q-35 0 -57 24t-22 56v46q-59 88 -137 88q-106 0 -106 -78q1 -48 45 -86t138 -92t135 -82q143 -97 190 -201q29 -66 28 -145
q0 -160 -95 -277t-222 -156t-262 5t-209 174h-613z" />
    <glyph glyph-name=".notdef" horiz-adv-x="622" 
 />
    <glyph glyph-name=".null" horiz-adv-x="0" 
 />
    <glyph glyph-name="nonmarkingreturn" horiz-adv-x="681" 
 />
    <glyph glyph-name="NULL" horiz-adv-x="0" 
 />
    <glyph glyph-name="NULL" horiz-adv-x="0" 
 />
    <glyph glyph-name="CR" unicode="&#xd;" horiz-adv-x="622" 
 />
    <glyph glyph-name="space" unicode=" " horiz-adv-x="622" 
 />
    <glyph glyph-name="exclam" unicode="!" horiz-adv-x="288" 
d="M268 100q0 -51 -37 -87t-88 -36t-87 36t-36 87t36 88t88 37t88 -37t36 -88zM231 481q1 -35 -25 -61t-62 -27q-36 0 -62 27t-27 61v1037q0 36 27 62q26 26 62 26t62 -27t25 -61v-1037z" />
    <glyph glyph-name="quotedbl" unicode="&#x22;" horiz-adv-x="417" 
d="M326 1206q-29 0 -51 20t-21 52v96q0 28 22 50t50 22t50 -22t21 -50v-96q0 -32 -21 -52t-50 -20zM92 1206q-28 0 -50 20t-22 52v96q0 28 22 50t50 22t50 -22t22 -50v-96q0 -32 -22 -52t-50 -20z" />
    <glyph glyph-name="numbersign" unicode="#" horiz-adv-x="1622" 
d="M918 575l116 422h-293l-116 -422h293zM1513 1174q37 0 63 -26t26 -63t-26 -63t-63 -25h-296l-117 -422h250q36 1 62 -25t26 -62t-27 -62t-61 -25h-299l-93 -338q-16 -63 -84 -63q-16 0 -24 4q-35 8 -53 40t-9 67l80 290h-293l-92 -338q-7 -29 -31 -46t-46 -17t-31 4
q-35 8 -53 40t-9 67l80 290h-284q-37 0 -63 26q-26 25 -26 61t26 62t63 25h333l117 422h-287q-36 0 -62 26q-26 27 -26 63t27 62t61 26h334l94 335q8 35 41 53t68 9q35 -10 52 -42t7 -67l-80 -288h295l93 335q8 35 41 53t67 10q34 -9 53 -42q18 -33 9 -68l-80 -288h247z" />
    <glyph glyph-name="dollar" unicode="$" horiz-adv-x="1243" 
d="M1223 469q0 -227 -155 -353t-404 -145v-141q0 -36 -23 -58t-57 -22t-57 24q-24 24 -23 56v145q-193 29 -338 167t-146 327q0 96 46 169q79 127 250 142q71 6 131 -28q61 -34 79 -82t4 -80t-49 -46q-35 -13 -67 2t-45 48q-17 17 -55 10q-38 -8 -62 -21q-56 -31 -55 -114
q-1 -117 115 -220t272 -104q205 0 334 77t129 247q0 113 -85 183q-86 70 -226 134t-184 86t-112 64q-196 124 -195 312q1 124 74 219q74 95 213 118v160q0 35 27 61t63 27q36 0 62 -27t25 -61v-168q74 -18 137 -64v33q0 37 25 63q26 25 62 25q35 0 61 -26t26 -62v-368
q0 -37 -26 -63q-26 -25 -62 -25t-61 26q-26 26 -25 62v77q-96 160 -242 160q-104 0 -143 -51t-39 -124t76 -130q76 -56 207 -116t178 -84t122 -72t115 -96t71 -120q32 -72 32 -153z" />
    <glyph glyph-name="percent" unicode="%" horiz-adv-x="1536" 
d="M1210 174q53 0 92 53q38 53 38 126t-40 127q-39 54 -90 54t-90 -54t-39 -127t38 -126t91 -53zM1210 709q125 -1 215 -105q91 -104 91 -250t-90 -252q-90 -104 -216 -104q-127 0 -216 104t-89 250t90 252q90 105 215 105zM326 1049q53 0 92 53t39 127t-39 127t-92 53
q-54 0 -92 -53t-38 -127t39 -127q38 -53 91 -53zM631 1229q0 -147 -89 -251t-216 -106q-127 0 -216 104q-90 104 -90 252t90 252t216 105q127 -1 216 -105t89 -251zM1004 1520q14 33 48 46t68 -2q33 -15 45 -48t-2 -68l-624 -1399q-15 -33 -49 -45t-68 2t-46 48q-13 34 1 67
z" />
    <glyph glyph-name="ampersand" unicode="&#x26;" horiz-adv-x="1748" 
d="M726 -27q-175 1 -316 51t-223 130q-81 80 -125 181q-85 195 4 398q73 168 258 244q-98 104 -94 255q4 152 124 264q119 112 328 112q92 0 186 -47t127 -111q16 -31 6 -66t-42 -52q-33 -17 -67 -7t-50 43q-14 18 -64 42t-96 24q-129 0 -201 -62q-73 -62 -75 -148
q-2 -88 57 -140t145 -58q35 -2 59 -30q23 -28 21 -62t-28 -60q-26 -25 -60 -24q-164 0 -265 -65q-185 -119 -121 -345q28 -98 101 -164q143 -127 414 -126q201 0 328 63t164 184q18 83 4 143t-46 82t-80 20t-88 -29q-41 -27 -59 -75t9 -120q13 -33 -3 -67t-51 -46t-67 3
t-45 50q-41 111 -18 211q24 100 106 166q160 162 481 94q127 -25 181 89t-19 178q-70 51 -134 44t-81 -50q-12 -31 -43 -44q-31 -12 -62 -2t-44 41t-1 62q47 121 191 149t276 -77q78 -66 95 -165q17 -100 -27 -194t-134 -149q-89 -55 -200 -41q78 -150 27 -322
q-32 -111 -155 -227q-71 -66 -202 -107t-306 -41z" />
    <glyph glyph-name="quotesingle" unicode="'" horiz-adv-x="184" 
d="M92 1206q-28 0 -50 20t-22 52v96q0 28 22 50t50 22t50 -22t22 -50v-96q0 -32 -22 -52t-50 -20z" />
    <glyph glyph-name="parenleft" unicode="(" horiz-adv-x="466" 
d="M360 1579q36 0 61 -27q25 -26 25 -62t-24 -63q-104 -102 -162 -269q-58 -168 -61 -362q-2 -194 57 -365t166 -277q24 -25 24 -62q0 -36 -26 -62t-60 -26q-36 0 -63 27q-133 133 -205 333t-70 430t75 431t200 327q27 27 63 27z" />
    <glyph glyph-name="parenright" unicode=")" horiz-adv-x="466" 
d="M108 4q-36 0 -62 26t-26 62t25 62q106 106 166 277q59 171 57 366t-60 361t-163 269q-25 27 -25 63t26 62t62 27q36 0 62 -27q127 -128 200 -328q72 -200 74 -430t-70 -430t-204 -333q-26 -27 -62 -27z" />
    <glyph glyph-name="asterisk" unicode="*" horiz-adv-x="505" 
d="M315 1067q0 -25 -17 -42t-42 -17t-42 17t-17 42v127l-84 -49q-23 -14 -47 -8t-35 27q-12 21 -6 46t26 37l86 51l-86 52q-20 12 -26 36t6 46q12 20 36 26t46 -6l84 -49v119q0 27 17 44t42 17t42 -17t17 -44v-117l78 47q20 12 45 6t37 -26t6 -46t-26 -36l-86 -52l86 -51
q20 -12 26 -37q6 -24 -6 -46t-36 -28t-46 9l-78 45v-123z" />
    <glyph glyph-name="plus" unicode="+" horiz-adv-x="858" 
d="M750 879q36 0 62 -26q26 -25 26 -61t-26 -63t-62 -27h-234v-231q0 -37 -26 -63t-62 -25q-36 0 -62 26t-26 62v231h-231q-37 0 -63 27t-26 63t26 62t63 25h231v233q0 37 27 63q27 25 63 25t60 -26q26 -26 26 -62v-233h234z" />
    <glyph glyph-name="comma" unicode="," horiz-adv-x="229" 
d="M39 129q-25 12 -35 39t2 51l49 105q10 28 37 36q26 8 52 -4t36 -38t-2 -52l-49 -104q-11 -25 -37 -35t-53 2z" />
    <glyph glyph-name="hyphen" unicode="-" horiz-adv-x="858" 
d="M750 702h-641q-37 0 -63 27t-26 63t26 62t63 25h641q36 0 62 -26q26 -25 26 -61t-26 -63t-62 -27z" />
    <glyph glyph-name="period" unicode="." horiz-adv-x="288" 
d="M268 367q0 -51 -37 -87t-88 -36t-87 36t-36 87t36 87t87 36t88 -36t37 -87z" />
    <glyph glyph-name="slash" unicode="/" horiz-adv-x="796" 
d="M72 66q-33 14 -45 48t2 66l577 1293q16 35 49 47t67 -2t47 -50t-1 -67l-580 -1292q-16 -33 -48 -45t-68 2z" />
    <glyph glyph-name="zero" unicode="0" horiz-adv-x="1325" 
d="M662 143q194 -1 330 189t136 459q0 188 -69 339q-75 -146 -377 -468t-291 -398q121 -121 271 -121zM197 791q0 -197 75 -353q68 111 301 363l45 49q164 179 202 235t68 101q58 87 40 137q-117 117 -266 117q-193 0 -329 -190t-136 -459zM662 -33q-178 0 -326 112
q-147 112 -232 301q-84 189 -84 411q0 337 186 581t458 244q270 0 455 -245t185 -581t-186 -580q-186 -243 -456 -243z" />
    <glyph glyph-name="one" unicode="1" horiz-adv-x="684" 
d="M575 174q37 0 63 -26t26 -62t-26 -62t-63 -26h-358q-37 0 -63 27t-25 63q0 36 26 60q26 26 62 26h96v1098l-143 -142q-26 -26 -62 -26t-62 26t-26 62q0 37 27 61l293 293q41 42 95 20t54 -81v-1311h86z" />
    <glyph glyph-name="two" unicode="2" horiz-adv-x="1310" 
d="M310 350q-48 0 -76 -19t-32 -35t-5 -38q1 -21 25 -33t60 -3t56 38q22 29 63 78q-43 12 -91 12zM20 262q0 106 78 185t200 79t226 -47q99 99 206 239q106 140 138 202q163 318 3 458q-79 70 -235 70t-235 -74q-41 -37 -92 -16l-2 2q-45 16 -53 63t27 80q129 121 359 121
t358 -123t128 -287q0 -233 -146 -447q-77 -113 -134 -185t-168 -195q20 -13 100 -75q217 -167 354 -196q118 -25 187 -20q87 5 128 -3q41 -9 50 -76q8 -67 -58 -84q-49 -13 -142 -13q-91 0 -185 20t-178 65q-84 44 -135 76t-131 93t-107 80q-43 -49 -80 -98
q-77 -96 -187 -110t-192 47q-82 63 -82 169z" />
    <glyph glyph-name="three" unicode="3" horiz-adv-x="1234" 
d="M580 -29q-225 0 -393 125q-167 125 -167 330t159 310t358 42q35 -12 51 -44t5 -66t-44 -52q-33 -16 -68 -6q-111 37 -197 -15t-87 -166q0 -114 103 -199t280 -85q268 0 393 203q65 106 65 210q0 105 -56 185t-132 122t-187 80t-167 38q-55 6 -74 58q-18 52 22 92l277 274
h-422q-37 0 -63 26q-26 27 -25 63q0 36 26 62t62 25h637q57 0 80 -55t-19 -96l-313 -310q82 -23 168 -61q362 -168 362 -496q0 -182 -97 -321t-239 -206t-298 -67z" />
    <glyph glyph-name="four" unicode="4" horiz-adv-x="1138" 
d="M1030 635h-88v-459h33q37 0 63 -26t25 -62q0 -36 -26 -62t-62 -26h-242q-37 0 -63 26t-25 62q0 36 26 63q26 26 62 25h33v459h-655q-49 0 -76 41t-4 84l375 764q14 33 49 45t67 -3t45 -50q12 -35 -4 -68l-311 -639h514v678q0 35 26 61t62 25q36 0 62 -26t26 -60v-678h88
q35 0 62 -26q26 -25 26 -61t-26 -62q-27 -25 -62 -25z" />
    <glyph glyph-name="five" unicode="5" horiz-adv-x="1234" 
d="M580 -29q-225 0 -393 125q-167 125 -167 330t159 310t358 42q35 -12 51 -44t5 -66t-44 -52q-33 -16 -68 -6q-111 37 -197 -15t-87 -166q0 -114 103 -199t280 -85q268 0 393 203q65 106 65 217q0 213 -256 334q-145 68 -284 84q-82 4 -250 8q-39 0 -65 30t-21 69l49 415
q4 33 30 56t58 22h686q37 1 63 -25t26 -63t-26 -63t-63 -25h-608l-29 -242q164 -6 171 -7q177 -25 333 -97q362 -168 362 -496q0 -182 -97 -321t-239 -206t-298 -67z" />
    <glyph glyph-name="six" unicode="6" horiz-adv-x="1236" 
d="M223 432q47 -125 147 -200t212 -85q113 -10 217 17q104 26 173 100t68 170q0 158 -121 246q-122 88 -327 36t-369 -284zM20 572q0 186 64 362q136 381 458 554q171 91 367 95h2q35 1 61 -25t26 -62t-24 -62q-26 -26 -61 -27q-197 -4 -355 -116q-158 -113 -247 -273
q-88 -160 -108 -338q158 158 334 203q303 78 501 -72q104 -82 152 -214t8 -276q-39 -144 -172 -241q-139 -98 -316 -108t-329 54q-153 65 -257 212q-104 148 -104 334z" />
    <glyph glyph-name="seven" unicode="7" horiz-adv-x="954" 
d="M109 1407q-37 0 -63 26q-26 27 -26 63t26 62t63 25h737q49 0 75 -42t3 -87l-713 -1399q-16 -33 -51 -44t-68 5t-44 52t5 67l649 1272h-593z" />
    <glyph glyph-name="eight" unicode="8" horiz-adv-x="1273" 
d="M1077 528q0 156 -153 247q-154 91 -338 79q-150 -6 -270 -102t-120 -238t123 -248t289 -106t308 85q71 41 116 115t45 168zM618 -16q-248 0 -422 158t-176 360q0 158 88 282t240 191q-90 87 -106 197q-34 232 177 363q103 65 230 65t227 -57q100 -56 149 -139
q50 -83 49 -186t-66 -194q-20 -29 -58 -35q-38 -7 -66 15t-34 59t16 65q72 96 1 196t-199 99q-128 0 -192 -61t-64 -135t64 -135t179 -62q205 0 375 -115q223 -147 223 -387q0 -168 -97 -296q-96 -128 -238 -188t-300 -60z" />
    <glyph glyph-name="nine" unicode="9" horiz-adv-x="1179" 
d="M538 1442q-124 0 -233 -79t-109 -227t116 -234q114 -85 311 -32q111 31 212 124t107 212q-57 116 -169 176q-111 60 -235 60zM313 0q-53 0 -77 43t0 87q23 44 75 46q291 4 490 270q141 190 176 441q-131 -137 -307 -187q-285 -76 -467 64t-183 385q0 209 159 339t377 130
t401 -152q89 -74 145 -194t57 -268q0 -369 -217 -662q-119 -162 -282 -250t-345 -92h-2z" />
    <glyph glyph-name="colon" unicode=":" horiz-adv-x="288" 
d="M268 545q0 -51 -37 -87t-88 -36t-87 36t-36 87t36 87t87 36t88 -36t37 -87zM268 1023q0 -52 -36 -88t-88 -36t-88 37t-36 88t36 87t87 36t88 -36t37 -88z" />
    <glyph glyph-name="semicolon" unicode=";" horiz-adv-x="288" 
d="M180 412q-12 -25 -38 -35t-53 2q-26 12 -35 39t1 51l49 104q12 27 39 36t53 -3t34 -38t-3 -52zM268 1023q0 -52 -36 -88t-88 -36t-88 37t-36 88t36 87t87 36t88 -36t37 -88z" />
    <glyph glyph-name="less" unicode="&#x3c;" horiz-adv-x="837" 
d="M732 162q-38 0 -60 20l-621 535q-31 27 -31 67t31 66l621 536q28 23 64 20t60 -31q24 -27 22 -63t-32 -59l-544 -469l544 -469q29 -23 31 -59q1 -36 -23 -64q-24 -30 -62 -30z" />
    <glyph glyph-name="equal" unicode="=" horiz-adv-x="737" 
d="M629 522h-520q-37 0 -63 26t-26 62t26 62q26 27 63 26h520q37 0 63 -26t25 -63q1 -35 -25 -61t-63 -26zM629 885h-520q-37 -1 -63 25t-26 63t26 63t63 25h520q37 0 63 -26q26 -27 25 -63q1 -36 -25 -62t-63 -25z" />
    <glyph glyph-name="greater" unicode="&#x3e;" horiz-adv-x="837" 
d="M817 783q0 -40 -31 -66l-620 -535q-22 -20 -60 -20t-63 30t-23 65t31 58l545 469l-545 469q-29 23 -31 59t22 64t60 30q36 3 64 -20l620 -536q31 -27 31 -67z" />
    <glyph glyph-name="question" unicode="?" horiz-adv-x="1079" 
d="M477 95q0 -52 -37 -88t-88 -36t-87 36t-36 87t36 88t88 37t88 -36t36 -88zM274 361q-63 31 -63 170t123 233q63 47 111 73q47 26 173 82t196 113t69 146q0 137 -113 200q-98 57 -262 58q-111 0 -211 -78t-100 -180q0 -61 45 -86q31 -18 41 -54q9 -36 -9 -66
q-18 -32 -53 -42t-67 8q-134 78 -134 250t154 298t348 126t336 -80q201 -117 201 -354q0 -122 -68 -208t-150 -133t-208 -104q-125 -58 -186 -102q-60 -45 -60 -109q0 -34 10 -60t-5 -59t-50 -45t-68 3z" />
    <glyph glyph-name="at" unicode="@" horiz-adv-x="1601" 
d="M727 412q-71 0 -123 22q-122 50 -169 163q-26 65 -17 142q16 156 147 289t307 154q37 4 66 -19t33 -59t-19 -65q-23 -30 -59 -31q-101 -12 -195 -98t-104 -177q-10 -92 53 -128t180 20q47 27 79 57t38 53l62 381q6 34 36 56t65 17q36 -5 56 -35t17 -67l-90 -548
q-14 -88 4 -146q8 -25 39 -23t55 25q223 211 235 496q8 205 -112 346q-121 141 -322 162q-161 19 -323 -47q-331 -134 -451 -470q-59 -167 -27 -335q23 -115 94 -200q72 -85 182 -129t247 -38q37 2 63 -22t29 -62q2 -38 -23 -64t-61 -28q-163 -8 -317 51t-254 181t-132 278
q-41 213 31 420q143 411 557 582q201 82 406 59q268 -31 434 -225t155 -465q-16 -358 -290 -617q-103 -100 -225 -68t-156 138q-20 55 -21 131q-109 -57 -180 -57z" />
    <glyph glyph-name="A" unicode="A" horiz-adv-x="1619" 
d="M1122 967q160 47 301 -21v443q-162 -72 -301 -422zM1511 1583q37 1 63 -25t25 -63v-1405q1 -36 -25 -62t-63 -26h-116q-37 0 -63 27t-26 63t26 61q26 26 63 25h28v516q-10 61 -69 90t-131 23q-166 -16 -238 -250q-88 -283 -130 -395t-125 -201q-150 -159 -366 -139
q-206 17 -312 226q-54 106 -16 241t157 194q96 47 183 25t137 -102q50 -78 36 -167t-88 -147q-27 -24 -64 -18t-59 35t-19 65q4 36 33 57q44 35 12 84t-98 9t-69 -123q-2 -45 20 -86q66 -127 207 -121q88 6 161 72t113 176q18 47 105 321q139 461 244 658q57 109 122 186
h-141q-34 0 -60 -26q-26 -27 -26 -61t-26 -60t-62 -27q-36 0 -62 27t-26 61q0 109 77 185t185 77h483z" />
    <glyph glyph-name="B" unicode="B" horiz-adv-x="1413" 
d="M260 377q0 -139 121 -243t332 -103q211 0 357 119t146 301t-66 288q-67 107 -163 137t-195 26q-98 -4 -174 -42q-76 -37 -90 -82v-2l-2 -2v-78q54 -23 102 -81t43 -150q-5 -91 -70 -155t-157 -68q-34 -2 -62 24t-29 61q-1 37 24 63t61 28q51 2 58 59q2 33 -26 52t-71 15
t-80 -38q-59 -49 -59 -129zM682 1407h-156v-397q70 37 168 57q156 43 156 172q0 70 -49 119t-119 49zM84 377q0 123 77 218t189 118v694h-69q-35 0 -60 -26q-25 -27 -25 -61t-25 -60q-27 -26 -63 -27q-36 0 -62 27t-26 61q0 109 77 185t184 77h401q140 0 242 -101t102 -243
q0 -100 -49 -178q197 -47 307 -204t109 -390q0 -275 -199 -444t-469 -169t-446 138q-195 150 -195 385z" />
    <glyph glyph-name="C" unicode="C" horiz-adv-x="1224" 
d="M20 844q0 317 166 540q199 262 539 263q174 2 303 -113t129 -279t-110 -270q-115 -119 -281 -88h-12q-143 33 -211 164q-47 92 -21 196q33 111 127 158q33 16 68 6t51 -43q16 -34 5 -68t-42 -49t-39 -51t8 -69q33 -66 105 -74t125 46t53 136t-59 142q-84 84 -197 79h-2
q-217 0 -373 -162t-155 -464q0 -207 87 -386t230 -270q248 -154 563 -4q33 16 68 4t50 -45t3 -67t-45 -49q-403 -193 -733 14q-184 115 -292 331t-108 472z" />
    <glyph glyph-name="D" unicode="D" horiz-adv-x="1544" 
d="M262 377q0 -139 121 -243t315 -103q194 0 343 97q148 97 229 249q80 153 80 315t-80 301t-201 227t-252 137q-131 50 -242 50h-47v-711q59 -25 95 -71q55 -63 50 -157t-69 -158t-158 -68q-36 -2 -62 24t-28 61q-2 37 23 63t61 28q51 2 58 59q0 53 -66 66q-62 10 -116 -39
t-54 -127zM1524 696q0 -330 -224 -575q-236 -264 -587 -264q-264 0 -445 145q-180 145 -180 375q0 162 119 264q66 55 147 72v694h-73q-35 0 -60 -26q-25 -27 -25 -61t-25 -60q-27 -26 -63 -27q-36 0 -62 27t-26 61q0 109 76 185t185 77h294q145 -1 309 -63t314 -180
t238 -286q88 -169 88 -358z" />
    <glyph glyph-name="E" unicode="E" horiz-adv-x="1191" 
d="M1225 1583q35 1 61 -25t25 -63q0 -37 -26 -63t-60 -25h-697v-506q78 43 186 63t164 18q56 -3 86 -3t54 -28q24 -27 20 -63t-30 -60t-64 -21q-373 0 -416 -162v-467h627q0 35 26 62q27 26 63 26t62 -26t25 -62v-88q1 -36 -25 -62t-63 -26h-962q-106 0 -184 77
q-77 77 -77 185v2q0 35 26 62q26 26 63 26t63 -26t25 -64t25 -62t59 -24h73v1229h-73q-35 0 -60 -26q-25 -27 -25 -61t-25 -60q-27 -26 -63 -27q-36 0 -62 27t-26 61q0 109 76 185t185 77h944z" />
    <glyph glyph-name="F" unicode="F" horiz-adv-x="1658" 
d="M590 1581h911q37 0 72 -26t45 -60l14 -45q10 -35 -8 -66q-18 -32 -54 -40t-68 10t-40 51h-624v-516q182 172 422 172q36 0 62 -26q26 -25 26 -61t-27 -62t-61 -25q-154 1 -280 -105t-142 -227q-4 -227 -47 -346q-55 -162 -189 -245t-262 -83q-170 0 -272 131
q-59 78 -66 170q-6 92 47 182t143 116t170 -10t117 -114t6 -166q-10 -33 -43 -49q-34 -16 -68 -4t-49 44t-2 71t-30 55q-39 19 -75 -11t-40 -78t29 -97q78 -98 223 -45t195 190q27 78 30 152q4 74 5 110t2 39v838h-72q-35 0 -61 -26q-25 -27 -25 -61t-26 -61t-62 -27t-62 28
q-27 26 -26 61q0 109 76 185t186 77z" />
    <glyph glyph-name="G" unicode="G" horiz-adv-x="1273" 
d="M745 -461q0 -51 107 -63t162 44t61 216q-216 -48 -297 -134q-33 -36 -33 -63zM1448 -55q36 0 62 -26q26 -27 26 -63t-26 -62t-62 -25q-119 0 -195 -9q-8 -254 -116 -366q-85 -84 -221 -96t-241 56t-106 185q0 176 232 289q113 57 276 86q0 6 -1 37t-1 49
q-162 -66 -313 -66q-219 0 -395 126t-272 333q-95 207 -95 449q0 145 55 288q120 313 403 444q151 71 326 71q96 0 177 -43v47q-1 37 25 63t63 25q37 0 63 -26t25 -62v-301q0 -35 -26 -62q-27 -26 -61 -26t-59 22t-28 55q-16 113 -165 131t-325 -92q-225 -141 -283 -391
q-14 -70 -14 -143q0 -238 111 -432t307 -272q196 -77 463 46l18 6v314q-2 59 -28 94q-27 35 -62 39t-57 33q-22 28 -19 64q4 36 33 59t66 18q104 -12 172 -95t71 -206q0 -506 2 -573q82 8 195 8z" />
    <glyph glyph-name="H" unicode="H" horiz-adv-x="1701" 
d="M1593 178q37 0 63 -26t26 -61q0 -37 -26 -63t-63 -26h-207q-36 0 -62 27t-26 63t26 61q26 26 62 25h15v672q-6 25 -55 57q-57 41 -123 41q-225 0 -312 -129q-59 -88 -73 -260q-4 -238 -52 -362q-86 -233 -344 -301q-194 -44 -317 59t-123 250q0 80 43 153q82 139 227 134
q68 -4 125 -41t84 -97q55 -117 -28 -225q-19 -29 -57 -35t-66 17t-34 59q-5 36 15 62q21 26 9 52t-50 30t-73 -44q-49 -88 21 -162t177 -42q202 56 243 244q22 101 24 302v795h-72q-35 0 -61 -26q-25 -27 -25 -63t-26 -61t-62 -25t-61 26q-26 26 -25 61q0 113 77 189t183 75
h237q37 1 63 -25t26 -61t-24 -61q-22 -26 -54 -29v-408q141 125 385 125q94 0 178 -45v328h-15q-36 0 -62 26q-26 27 -26 63t26 62t62 25h207q37 1 63 -25t26 -63t-26 -63t-63 -25h-16v-1229h16z" />
    <glyph glyph-name="I" unicode="I" horiz-adv-x="722" 
d="M656 -94q-76 0 -188 53t-208 41q-40 -4 -68 20t-32 58t20 64t58 32q106 12 202 -16v1253q-92 39 -168 30t-75 -44q0 -18 12 -19q35 2 63 -22t29 -62t-23 -64t-61 -28h-8q-78 0 -133 58q-56 58 -56 136q0 79 56 142t162 76q166 18 329 -70q84 -37 110 -12q27 24 63 22
t61 -28t23 -63q-2 -36 -29 -60q-74 -70 -179 -57v-1258q41 -12 65 10q23 22 59 19q36 -2 61 -29q25 -28 23 -64t-29 -61q-63 -57 -139 -57z" />
    <glyph glyph-name="J" unicode="J" horiz-adv-x="1038" 
d="M1038 1583q37 1 63 -25q25 -26 25 -63t-26 -63t-62 -25h-55v-938q-4 -370 -267 -551q-140 -96 -339 -96q-115 -2 -210 57t-138 159t-24 187q19 88 71 153q52 66 130 94t150 6t117 -74q45 -50 61 -108t-5 -124q-22 -66 -80 -113q-29 -23 -66 -17t-59 34t-17 64q4 36 33 59
t23 57q-7 34 -47 49q-40 16 -95 -29q-74 -72 -33 -165q18 -47 66 -80t117 -33q199 0 317 124t119 353v932h-232q-35 0 -61 -26q-26 -27 -25 -63t-25 -61t-62 -25t-62 26t-27 61v2q0 109 77 185t185 77h463z" />
    <glyph glyph-name="K" unicode="K" horiz-adv-x="1589" 
d="M1774 91q0 -37 -27 -63t-61 -26q-104 0 -181 68q-76 68 -113 170q-70 187 -144 457q-30 110 -88 193t-138 103q-135 -117 -135 -192v-205q0 -136 -5 -171q-5 -34 -13 -96t-35 -139q-92 -246 -367 -319q-113 -31 -221 2t-172 118q-65 85 -72 182q-6 97 48 191t150 123
t180 -9q85 -38 124 -122q57 -123 -29 -237q-20 -29 -57 -34t-66 16t-35 59t17 66q22 28 12 52t-35 37t-57 5t-55 -50q-51 -92 12 -168q33 -41 87 -61t122 0h2q223 56 265 273q24 123 24 321v772h-72q-35 0 -59 -26q-24 -27 -25 -63q0 -36 -27 -61q-26 -25 -62 -25t-62 26
t-25 61v2q0 109 76 185t184 77h240q37 1 63 -25t25 -62q0 -36 -23 -60t-57 -29v-299q59 51 216 164t203 174q22 30 22 58t25 54q27 26 63 26t62 -26t26 -71q-1 -130 -197 -282q-41 -31 -83 -61t-44 -32q90 -59 156 -178t101 -244t67 -243q72 -269 182 -269q36 0 62 -26
t26 -61z" />
    <glyph glyph-name="L" unicode="L" horiz-adv-x="675" 
d="M334 170v1237h-74q-36 0 -60 -26q-24 -27 -24 -63t-26 -61t-62 -25t-62 26t-26 61v2q0 109 76 185t184 77h240q36 1 62 -25t26 -62t-23 -60t-57 -29v-1268q167 -62 417 -294q85 -79 207 -142t242 -63t199 26q80 26 116 63q73 77 61 161q-5 36 -19 61q-45 61 -101 50
t-74 -50q-8 -14 11 -37q19 -24 15 -60t-31 -59q-29 -23 -65 -19t-59 31q-93 119 -19 241t226 130q115 6 197 -73t92 -191t-47 -227q-125 -223 -498 -224q-126 0 -242 43t-200 108q-84 66 -171 138t-159 130q-168 136 -330 106q-36 -6 -66 16t-36 56t14 64t58 38q61 8 88 8z
" />
    <glyph glyph-name="M" unicode="M" horiz-adv-x="2015" 
d="M1907 178q37 0 63 -26t25 -61q0 -37 -26 -63t-62 -26h-207q-37 0 -63 27q-25 27 -25 63t25 61q26 26 63 25h16v985l-354 -622q-27 -45 -78 -45t-76 47l-321 600v-565q0 -281 -74 -435q-96 -205 -346 -272q-49 -14 -107 -14q-184 0 -288 137q-63 82 -70 179q-6 97 45 185
q86 147 238 142q70 -2 130 -42t89 -102q57 -123 -29 -237q-20 -29 -57 -34t-66 16t-35 59t17 66q22 28 12 52t-35 37t-57 5t-55 -50q-51 -92 12 -168q33 -41 87 -61t122 0h2q160 43 224 163t65 374v829h-72q-35 0 -61 -27q-26 -28 -25 -62q0 -34 -26 -60q-25 -26 -61 -26
t-63 26t-26 61q0 109 77 187t185 77h160q51 0 78 -47l411 -770l441 772q35 57 98 41q29 -8 47 -32t18 -52v-1317h15z" />
    <glyph glyph-name="N" unicode="N" horiz-adv-x="2017" 
d="M1909 1583q37 1 63 -25t25 -63q0 -37 -26 -63t-62 -25h-17v-1317q0 -36 -26 -62t-76 -26q-98 0 -217 86q-78 58 -172 209q-94 150 -249 535t-265 505v-583q0 -307 -15 -406q-54 -385 -405 -477q-113 -31 -221 2t-172 118q-65 85 -72 182q-6 97 45 185q86 147 238 142
q70 -2 130 -42t89 -102q57 -123 -29 -237q-20 -29 -57 -34t-66 16t-35 59t17 66q22 28 12 52t-35 36q-25 13 -57 5t-55 -49q-55 -96 23 -180t198 -49h2q170 47 220 149q69 139 69 348v869h-72q-35 0 -61 -26q-26 -25 -25 -61q0 -36 -26 -62q-27 -26 -63 -26t-62 26t-25 63
q0 109 78 185t184 77h121q103 0 206 -77q71 -54 163 -206q68 -107 166 -347q97 -240 128 -309q114 -253 177 -331q63 -77 116 -108v1202h-14q-37 0 -63 26q-25 27 -25 63t25 62q26 26 63 25h207z" />
    <glyph glyph-name="O" unicode="O" horiz-adv-x="1458" 
d="M1438 786q0 -352 -206 -605t-503 -253t-508 258q-201 252 -201 600q0 66 8 124t37 78q29 22 65 18t58 -34t15 -75q-6 -45 -6 -111q-1 -282 155 -482t376 -200t377 201t157 483t-157 482q-157 201 -376 200q-170 0 -309 -127q-80 -74 -83 -176t65 -180t172 -83
q106 -5 184 67q24 20 26 62t-43 64q-45 23 -78 -7t-69 -28t-60 30t-22 64t29 58q78 70 181 65t173 -83t65 -181t-81 -173q-2 0 -2 -2q-129 -117 -309 -110t-297 138q-117 130 -111 306t141 299q190 174 428 174q297 0 508 -258q201 -251 201 -603z" />
    <glyph glyph-name="P" unicode="P" horiz-adv-x="1531" 
d="M1335 1291q0 40 -38 78t-91 38h-368v-438l36 24q124 85 278 136t175 102q8 20 8 60zM1194 1583q139 0 228 -90t89 -215q0 -219 -278 -309q-207 -67 -327 -172q-65 -57 -68 -115v-4q0 -338 -47 -469q-82 -242 -349 -313q-106 -29 -208 3q-102 31 -164 111q-61 80 -68 172
q-6 92 43 176q82 139 225 134q88 -4 154 -62t76 -138q10 -79 -47 -163q-19 -29 -57 -35t-66 17t-34 59q-5 36 15 62q21 26 9 52t-50 30t-73 -44q-49 -88 21 -162t177 -42h2q174 43 228 200q37 104 37 396v745h-72q-35 0 -61 -27q-25 -28 -25 -62t-26 -61t-62 -26
q-76 0 -86 88t66 176t194 88h604z" />
    <glyph glyph-name="Q" unicode="Q" horiz-adv-x="1458" 
d="M365 349q4 -71 55 -117q140 -127 309 -128q113 0 215 58q-84 91 -175 195t-114 120q-57 41 -124 44t-123 -50q-47 -51 -43 -122zM1939 -416q-418 0 -870 449q-158 -104 -340 -105q-238 0 -428 174q-107 96 -113 238t88 246q94 102 228 110q135 8 254 -78q62 -47 165 -167
q103 -119 156 -177q183 203 183 499t-157 497t-376 200q-162 0 -294 -112t-195 -299q-63 -186 -35 -391q4 -35 -18 -65q-21 -30 -57 -34t-66 18t-33 58q-29 201 20 397t170 347q211 258 508 258t508 -258q201 -252 201 -618t-236 -624q399 -387 737 -387q141 0 267 62
t215 178q20 29 57 34q37 6 66 -16q30 -22 34 -59t-18 -65q-112 -146 -274 -228t-347 -82z" />
    <glyph glyph-name="R" unicode="R" horiz-adv-x="1843" 
d="M1296 1317q0 90 -122 90h-336v-363q149 106 340 173q55 15 83 37t31 33q4 11 4 30zM1725 178q47 0 73 -26t25 -61q0 -37 -26 -63t-62 -26q-166 0 -267 180q-60 109 -159 478q-31 112 -95 207t-151 112q-101 -53 -161 -111t-64 -106v-168q0 -104 -3 -132t-7 -72
q-8 -102 -37 -183q-82 -240 -349 -311q-49 -14 -102 -15q-170 0 -272 131q-59 78 -66 170q-6 92 43 176q82 139 227 134q68 -4 125 -41t84 -97q55 -117 -28 -225q-19 -29 -57 -35t-66 17t-34 59q-5 36 17 63q20 37 1 59t-54 24t-63 -46q-45 -80 10 -149q29 -37 78 -55t110 0
h2q203 51 242 255q21 110 23 312v774h-72q-35 0 -61 -27q-25 -28 -25 -62t-26 -60t-62 -26t-62 26q-27 26 -26 61q0 109 76 187t186 77h584q143 0 220 -79t76 -187q0 -178 -194 -252q137 -119 221 -418q33 -117 64 -225t74 -176t90 -68z" />
    <glyph glyph-name="S" unicode="S" horiz-adv-x="1095" 
d="M1075 444q0 -213 -160 -348t-349 -135t-321 76q-131 76 -185 201q-54 126 -31 246t117 216t236 102t232 -81q90 -86 92 -179t-56 -166t-143 -88t-177 36q-31 20 -38 56t13 66t55 38q35 7 66 -13q49 -31 90 16q35 45 -12 95t-119 45q-101 -7 -157 -105t-15 -194t130 -143
q89 -48 216 -48t234 86q106 86 106 221q0 76 -45 150t-112 129q-156 128 -284 254q-65 63 -106 153t-35 189q9 172 157 248t288 22q4 31 29 53t59 21q34 0 60 -26t26 -62v-207q0 -53 -44 -77t-88 1t-44 88q-8 16 -39 34t-78 20q-47 4 -97 -28t-54 -100q-4 -69 38 -138
q42 -68 106 -122q66 -54 142 -121t143 -130t111 -155t43 -196z" />
    <glyph glyph-name="T" unicode="T" horiz-adv-x="1073" 
d="M150 1249q0 -80 47 -142t122 -63q33 0 69 22t56 71t-22 127q-16 34 -7 68t42 51t67 7t51 -42q102 -190 5 -335q-98 -145 -254 -145t-254 113t-98 265t94 264t264 149q276 61 639 -103q170 -63 297 0t159 173q10 35 42 51t67 6t52 -42t7 -67q-33 -109 -125 -193t-233 -122
q-141 -37 -315 24v-819q-2 -57 1 -119q6 -123 -57 -253q-63 -129 -237 -183q-82 -25 -165 -1t-136 89q-92 115 -40 248t191 144q37 2 64 -22t31 -60t-22 -63q-24 -28 -64 -31t-42 -56q0 -53 52 -78q35 -14 80 0q102 31 137 104t33 236v934q-342 97 -508 -25
q-90 -67 -90 -182z" />
    <glyph glyph-name="U" unicode="U" horiz-adv-x="1484" 
d="M1425 1583q37 1 63 -25t26 -63t-26 -63t-63 -25h-16v-801q0 -303 -126 -475t-400 -174q-186 0 -313 92q-107 81 -158 230q-58 159 -58 434v694h-73q-35 0 -60 -26q-25 -25 -25 -61t-25 -62q-27 -26 -63 -26t-62 26t-26 61q0 109 77 187t184 77h239q37 1 63 -25
q25 -26 25 -62t-22 -60t-58 -29v-694q0 -348 99 -471q49 -61 109 -85t147 -24q195 0 273 121t77 352v801h-16q-35 0 -61 26q-26 27 -26 63t26 62t61 25h208z" />
    <glyph glyph-name="V" unicode="V" horiz-adv-x="1425" 
d="M766 98q0 -40 -22 -66t-56 -30t-60 15t-34 53l-322 1337h-10q-34 0 -60 -26q-26 -25 -26 -61t-26 -62t-62 -26t-62 26t-26 63q0 109 77 185t185 77h160q36 1 62 -25t26 -63q0 -61 -57 -82l231 -973q62 162 204 459t195 416t109 273t57 222q2 96 -63 163q-66 67 -146 67
t-128 -44q-50 -44 -50 -108t53 -69q57 -6 68 47q8 35 38 55t66 14q76 -14 69 -100t-91 -149q-74 -50 -164 -42t-152 75q-63 67 -63 185t100 216q100 96 238 96h2q166 0 283 -119t116 -289q0 -88 -55 -246q-54 -158 -114 -292q-60 -133 -172 -370t-215 -475t-103 -327z" />
    <glyph glyph-name="W" unicode="W" horiz-adv-x="1746" 
d="M1023 1207q-3 37 -15 34q-27 -3 -28 -61t7 -103q3 7 21 50t15 80zM1524 2214q168 0 284 -119t115 -289q0 -88 -58 -251q-59 -163 -115 -283t-160 -336q-146 -303 -244 -527q-99 -224 -99 -321q1 -36 -25 -62t-60 -26t-58 20t-31 52q-41 223 -135 528q-188 -365 -188 -512
q0 -32 -22 -58t-56 -30t-60 15q-27 19 -34 53l-306 1337h-10q-34 0 -60 -26q-26 -25 -26 -61t-26 -62t-62 -26t-62 26t-26 63q0 109 77 185t185 77h160q36 0 62 -26t26 -62q0 -61 -59 -82l219 -960q51 117 122 249t74 138q-37 129 -53 212q-38 197 29 287q52 72 170 72
t167 -83t10 -208q-40 -126 -134 -299q6 -18 17 -55t38 -122t59 -202q59 150 195 430q178 368 280 603q103 236 103 334q0 97 -65 164q-66 67 -146 67t-128 -44t-48 -108t53 -69q57 -6 68 47q8 37 38 57q29 20 65 13t56 -38t13 -65q-16 -92 -89 -145q-73 -52 -166 -44
t-154 77q-60 69 -60 187t100 212q100 96 238 96h2z" />
    <glyph glyph-name="X" unicode="X" horiz-adv-x="1089" 
d="M1006 178q34 0 60 -26t26 -62t-26 -62t-60 -26h-193q-37 0 -63 26t-25 60q0 34 19 58t49 30l-185 440l-442 -581q-20 -25 -72 -93q-150 -199 -227 -246q-37 -22 -110 -60t-212 -40q-139 -1 -234 59q-95 59 -137 157t-23 195t91 169q119 119 266 74q68 -20 115 -74
t60 -121q27 -133 -89 -221q-30 -22 -66 -18t-58 32t-17 65q4 36 33 58q36 35 20 68t-51 43q-55 16 -105 -50t-16 -147q18 -47 68 -81t119 -33h2q116 0 168 27q53 27 87 48t83 82q48 62 94 121q45 59 72 94l503 660l-251 604h-17q-34 0 -60 -26q-26 -27 -26 -61t-26 -60
t-61 -27q-37 0 -63 27t-26 61q0 109 77 185t185 77h156q36 1 62 -25t26 -68t-43 -71l190 -454l445 581q22 29 58 34q36 4 65 -18t34 -58t-18 -64l-506 -662l252 -600h23z" />
    <glyph glyph-name="Y" unicode="Y" horiz-adv-x="1183" 
d="M1217 1581q37 0 63 -26q26 -27 25 -63q0 -36 -26 -62t-62 -25h-33l-430 -1292q-70 -215 -154 -329t-258 -171q-110 -39 -220 -12t-180 107t-81 178q-12 97 33 188q76 150 229 153q70 3 132 -33t95 -96q63 -117 -14 -237q-20 -31 -56 -38t-67 13t-38 55t13 66
q33 49 -12 82q-47 33 -94 -4q-18 -16 -31 -39q-47 -94 21 -168q84 -96 213 -49h2q97 31 132 69q36 38 62 66t63 134q37 107 44 122l92 279l-399 958q-53 0 -79 -25q-26 -26 -26 -62t-26 -62t-62 -26t-62 26t-26 61q0 109 77 187t185 77h156q36 1 62 -25t26 -69t-41 -70
l301 -717l233 707q-63 18 -63 84q0 37 26 63t62 25h193z" />
    <glyph glyph-name="Z" unicode="Z" horiz-adv-x="1050" 
d="M932 -457q-148 1 -278 53t-220 124t-174 140q-195 160 -377 128q-63 -10 -94 46t8 107l965 1266h-498q-34 0 -60 -26q-26 -25 -26 -61t-26 -62t-63 -26q-35 0 -61 26t-26 63q0 109 77 185t185 77h674q55 0 80 -50t-10 -93l-973 -1276q163 -24 353 -181q75 -63 153 -123
q182 -142 387 -141q301 0 361 171q26 78 -9 141q-20 37 -62 48t-70 -6q-59 -35 -36 -75q23 -27 20 -64q-3 -38 -31 -60t-65 -18t-59 31q-59 73 -41 175t115 159q100 57 212 27t169 -129q76 -132 24 -283q-27 -78 -85 -144t-174 -107q-116 -42 -265 -42z" />
    <glyph glyph-name="bracketleft" unicode="[" horiz-adv-x="430" 
d="M322 4h-213q-37 0 -63 26t-26 62v1399q0 35 26 61t63 27h213q36 0 62 -27q26 -26 26 -62t-26 -62t-62 -25h-125v-1223h125q36 0 62 -26t26 -62t-26 -62t-62 -26z" />
    <glyph glyph-name="backslash" unicode="\" horiz-adv-x="796" 
d="M768 180q14 -32 2 -66t-46 -48t-67 -2t-49 45l-579 1292q-14 33 -1 67t46 50q36 14 68 2t48 -47z" />
    <glyph glyph-name="bracketright" unicode="]" horiz-adv-x="430" 
d="M322 4h-213q-37 0 -63 26t-26 62t26 63q26 26 63 25h124v1223h-124q-37 -1 -63 25t-26 62t26 62t63 27h213q36 0 62 -27t26 -61v-1399q0 -36 -26 -62t-62 -26z" />
    <glyph glyph-name="asciicircum" unicode="^" horiz-adv-x="696" 
d="M348 1583q34 0 60 -27l266 -294q24 -23 22 -57q-2 -35 -26 -57t-59 -20q-34 2 -54 27l-209 229l-209 -229q-23 -25 -55 -27t-58 21q-24 23 -26 57t20 56l269 294q25 27 59 27z" />
    <glyph glyph-name="underscore" unicode="_" horiz-adv-x="1083" 
d="M975 238h-866q-37 0 -63 26t-26 63q0 35 26 61t63 26h866q37 0 63 -26t25 -62q1 -36 -25 -62t-63 -26z" />
    <glyph glyph-name="grave" unicode="`" horiz-adv-x="229" 
d="M203 1249q-10 -27 -36 -38q-25 -11 -51 -2t-38 36l-49 105q-12 26 -2 52t34 38q27 12 54 2t37 -35l49 -104q12 -27 2 -54z" />
    <glyph glyph-name="a" unicode="a" horiz-adv-x="913" 
d="M309 766q154 82 344 76v299q-238 -94 -344 -375zM813 403q33 1 57 -23t23 -56q0 -32 -24 -57q-24 -24 -56 -23h-160q-35 0 -57 24t-23 56q0 32 24 56t56 23v279q-232 8 -350 -122q-57 -65 -61 -159q34 1 56 -23t22 -56t-24 -57q-24 -24 -56 -23h-160q-32 0 -56 24t-24 57
q0 35 23 57t57 21h2q20 514 311 766q72 61 174 109t156 49q35 5 63 -19t27 -61v-842z" />
    <glyph glyph-name="b" unicode="b" horiz-adv-x="931" 
d="M373 472q0 -22 7 -38t40 -34t79 -17q46 0 84 7q189 35 189 218q0 60 -32 114q-64 107 -232 105q-131 0 -248 -71v-150q82 109 211 76q31 -10 47 -38t7 -60t-37 -48q-28 -14 -56 -8t-43 -14q-16 -20 -16 -42zM338 1165h-78v-229q88 35 164 45q43 14 43 67q0 52 -46 84
t-83 33zM932 603q0 -149 -106 -265t-320 -115q-166 0 -246 103q0 -39 -24 -62q-24 -22 -56 -22t-56 24t-24 56v843h-20q-32 0 -56 24q-24 25 -24 57t23 56t57 23h258q100 0 194 -78t95 -196q-1 -37 -11 -74q144 -29 230 -127t86 -247z" />
    <glyph glyph-name="c" unicode="c" horiz-adv-x="847" 
d="M20 809q0 203 128 365t354 161h4q121 0 207 -80q86 -79 86 -197t-90 -191t-195 -50q-33 8 -50 36q-17 29 -10 61t34 50q28 17 63 9q35 -7 61 21t27 69q0 41 -38 77t-99 36q-150 0 -236 -110t-86 -254t69 -260t187 -161t275 27q31 14 61 3t45 -41q14 -30 4 -61t-41 -45
q-211 -92 -380 -40q-168 52 -274 212t-106 363z" />
    <glyph glyph-name="d" unicode="d" horiz-adv-x="950" 
d="M770 717q0 188 -160 318t-336 130v-483q84 76 193 51q33 -8 51 -35q18 -28 10 -60t-36 -50t-60 -10t-56 -20t-24 -68t35 -73q35 -34 88 -34q143 2 219 93t76 241zM293 1325q135 0 279 -72t250 -216q106 -143 108 -337q0 -194 -121 -335t-330 -142q-119 0 -205 80
q0 -33 -22 -57t-56 -23q-34 0 -58 24t-23 56v862h-15q-32 0 -56 24q-24 25 -24 57t23 56t57 23h193z" />
    <glyph glyph-name="e" unicode="e" 
d="M666 1325q36 1 58 -23t21 -57v-86q1 -33 -23 -57t-56 -23q-32 0 -57 24q-24 24 -23 62h-326v-219h285q33 0 57 -24t23 -56q0 -32 -24 -56t-56 -24h-285v-385h326q0 41 23 64q24 23 57 23q32 0 56 -24t23 -56v-86q1 -33 -23 -57t-56 -23h-566q-32 0 -56 24t-24 57
q0 35 23 57t57 21v764q-32 0 -56 24q-24 25 -24 57t24 56t56 23h566z" />
    <glyph glyph-name="f" unicode="f" 
d="M745 1159q1 -33 -23 -57t-56 -23q-32 0 -57 24q-24 24 -23 62h-326v-219h285q33 0 57 -24t23 -56q0 -32 -24 -56t-56 -24h-285v-385q32 1 56 -23t24 -56t-24 -57q-24 -24 -56 -23h-160q-32 0 -56 24t-24 57q0 35 23 57t57 21v764q-32 0 -56 24q-24 25 -24 57t24 56t56 23
h566q36 1 58 -23t21 -57v-86z" />
    <glyph glyph-name="g" unicode="g" horiz-adv-x="874" 
d="M774 756q32 0 56 -24t24 -56v-334q0 -51 -45 -72q-129 -59 -267 -59t-268 80q-127 80 -200 216q-74 136 -74 290q0 205 141 369t365 165q86 0 153 -31q18 57 76 58q33 0 57 -24t23 -56v-209q-1 -33 -23 -57t-56 -23q-34 0 -58 24t-23 56v33q-33 70 -147 69h-2
q-152 1 -249 -115t-97 -245t53 -228t147 -157q158 -96 334 -31v201h-45q-33 0 -57 24t-23 56q0 32 24 56t56 24h125z" />
    <glyph glyph-name="h" unicode="h" horiz-adv-x="989" 
d="M889 401q33 -1 57 -23t23 -56q0 -34 -24 -57q-24 -24 -56 -23h-160q-33 0 -57 24t-23 56q0 32 24 56t56 23v381q-137 -16 -272 -73t-197 -131v-177q36 -1 58 -23t22 -56t-24 -57q-24 -24 -56 -23h-160q-32 0 -56 24t-24 57q0 35 23 57t57 21v764q-32 0 -56 24
q-24 25 -24 57t24 56t56 23h160q36 1 58 -23t22 -57t-24 -57t-56 -23v-381q207 133 469 160v221q-33 0 -57 24q-24 25 -23 57q0 32 24 56t56 23h160q33 1 57 -23t23 -57q0 -33 -24 -57t-56 -23v-764z" />
    <glyph glyph-name="i" unicode="i" horiz-adv-x="360" 
d="M260 401q32 1 56 -23t24 -56t-24 -57q-24 -24 -56 -23h-160q-32 0 -56 24t-24 57q0 35 23 57t57 21v764q-32 0 -56 24q-24 25 -24 57t23 56t57 23h160q32 1 56 -23t24 -57t-24 -57t-56 -23v-764z" />
    <glyph glyph-name="j" unicode="j" horiz-adv-x="718" 
d="M618 1325q33 1 57 -23q23 -24 23 -57t-24 -57t-56 -23v-518q0 -207 -99 -323t-275 -117h-2q-100 1 -171 67t-71 162t73 160t167 43q33 -8 50 -36q17 -29 10 -61t-35 -49t-53 -13q-24 4 -38 -10q-14 -15 -14 -40t26 -44t56 -19q217 0 217 280v518h-164q-33 0 -57 24
q-24 25 -23 57q0 32 24 56t56 23h323z" />
    <glyph glyph-name="k" unicode="k" horiz-adv-x="839" 
d="M970 399q42 1 66 -23t23 -57q0 -33 -24 -57t-56 -22q-94 0 -181 70t-144 156q-56 87 -123 186t-113 136l-158 -163v-224q32 1 56 -23t24 -56t-24 -57q-24 -24 -56 -23h-160q-36 0 -58 22t-22 57q0 33 24 57t56 23v764q-32 0 -56 24q-24 25 -24 57t23 56t57 23h160
q32 1 56 -23t24 -57t-24 -57t-56 -23v-311q16 18 110 116t196 204q101 106 119 124q19 18 51 18q32 1 56 -22q24 -22 24 -56t-21 -56l-267 -279q82 -69 230 -305q50 -78 110 -138t102 -61z" />
    <glyph glyph-name="l" unicode="l" horiz-adv-x="733" 
d="M553 403q1 39 25 61t56 23t56 -23t23 -56v-84q0 -33 -24 -57t-56 -23h-533q-36 0 -58 24t-22 56t24 56t56 23v762q-36 0 -58 24q-22 25 -22 57t24 56t56 23h160q32 1 56 -23t24 -57t-24 -57t-56 -23v-762h293z" />
    <glyph glyph-name="m" unicode="m" horiz-adv-x="1265" 
d="M1006 244q-35 0 -58 24t-22 56q0 32 24 56t56 23v631l-314 -350q-24 -27 -58 -29t-61 29l-313 350v-631q32 1 56 -23t24 -56t-24 -57q-24 -24 -56 -23h-160q-36 0 -58 24t-22 56t24 56t56 23v842q0 57 52 74q53 20 88 -21l393 -440l393 440q35 41 88 21q51 -16 51 -74
v-842q33 -3 57 -25t24 -54t-24 -57q-24 -24 -57 -23h-159z" />
    <glyph glyph-name="n" unicode="n" horiz-adv-x="1101" 
d="M1001 1327q33 1 57 -23t24 -58t-24 -56q-22 -22 -57 -23v-845q0 -58 -53 -76t-88 26l-600 746v-615q32 1 56 -23t24 -56t-24 -57q-24 -24 -56 -23h-160q-36 0 -58 24t-22 56t24 56t56 23v842q0 55 54 75t88 -26l600 -745v618q-33 0 -57 24q-23 25 -23 57t23 56
q24 24 57 23h159z" />
    <glyph glyph-name="o" unicode="o" horiz-adv-x="964" 
d="M805 798q0 176 -122 296t-273 77q74 -23 122 -85t48 -150t-62 -155t-153 -58q-33 4 -54 30q-20 27 -17 59t29 52t50 18q47 -3 47 70q0 32 -27 52t-59 16q-106 -16 -146 -108t-19 -220q22 -128 106 -214q85 -85 208 -91q133 2 228 118q94 117 94 293zM486 1341
q196 1 337 -163t141 -394t-140 -393q-142 -164 -343 -164h-4q-180 8 -307 131t-160 320q-20 125 10 241q31 116 117 185q-20 49 15 88q138 149 334 149z" />
    <glyph glyph-name="p" unicode="p" horiz-adv-x="778" 
d="M598 1040q0 55 -44 90t-122 35h-172v-291q41 14 142 37t149 48q47 26 47 81zM432 1325q158 0 242 -86q84 -85 84 -197t-70 -177t-154 -85t-170 -40q-85 -20 -104 -42v-297q32 1 56 -23t24 -56t-24 -57q-24 -24 -56 -23h-160q-36 0 -58 22t-22 57q0 33 24 57t56 23v764
q-32 0 -56 24q-24 25 -24 57t23 56t57 23h332z" />
    <glyph glyph-name="q" unicode="q" horiz-adv-x="944" 
d="M158 664q69 86 181 86t200 -95q23 -25 71 -80t68 -77q86 120 86 284t-88 282t-213 118t-214 -118t-89 -284l6 -90q0 -12 -8 -26zM463 379q47 0 90 18q-145 164 -152 168q-69 53 -116 0q-23 -25 -22 -59t26 -55q78 -72 174 -72zM1206 4q-262 0 -538 272q-98 -57 -205 -57
q-158 0 -283 115q-63 59 -75 147q-11 88 36 160q-18 -19 -48 -23q-31 -4 -57 16t-31 59q-5 38 -5 87q0 230 135 396t327 166t326 -166q136 -164 136 -398t-136 -395q227 -219 418 -219q35 0 58 -23q22 -23 22 -57t-24 -56q-24 -24 -56 -24z" />
    <glyph glyph-name="r" unicode="r" horiz-adv-x="796" 
d="M598 1040q0 52 -40 90q-40 37 -101 35h-197v-286q39 13 142 35t150 48q46 26 46 78zM797 389q31 -1 53 -23t22 -56t-24 -58t-55 -23q-100 1 -170 95t-126 248t-75 184h-2q-145 -35 -160 -54v-301q36 -1 58 -23t22 -56t-24 -57q-24 -24 -56 -23h-160q-32 0 -56 24t-24 56
t24 56t56 23v764q-32 0 -56 24q-24 25 -24 57t23 56t57 23h355q127 2 215 -82t88 -209q0 -166 -180 -235q16 -35 66 -161t86 -188t67 -61z" />
    <glyph glyph-name="s" unicode="s" horiz-adv-x="837" 
d="M838 571q0 -164 -120 -258t-325 -94q-147 1 -270 103t-123 249q0 93 54 151t125 72t126 -13q55 -26 71 -68q16 -43 2 -73q-13 -30 -43 -40t-59 1t-43 38q-20 4 -47 -11t-26 -57q0 -76 76 -134t177 -58t183 45t82 147q0 66 -54 108t-153 87t-135 64q-36 18 -87 58
q-101 77 -100 193q1 115 72 184q72 69 187 68q74 0 139 -35q4 29 26 48q23 18 54 18t55 -24t23 -56v-246q0 -32 -24 -56q-25 -24 -57 -24t-56 24t-23 56v47q-53 89 -144 89t-92 -89q0 -45 46 -79q47 -34 139 -74q92 -41 134 -65q140 -80 182 -167q28 -57 28 -129z" />
    <glyph glyph-name="t" unicode="t" horiz-adv-x="856" 
d="M756 1325q32 1 56 -23t24 -57t-24 -57t-56 -23h-248v-764q32 1 56 -23t24 -56t-24 -57q-24 -24 -56 -23h-160q-32 0 -56 24t-24 57q0 35 24 57t56 21v764h-248q-32 0 -56 24q-24 25 -24 57t23 56t57 23h656z" />
    <glyph glyph-name="u" unicode="u" horiz-adv-x="1046" 
d="M946 1325q32 1 56 -23t24 -57t-24 -57t-56 -23v-628q0 -119 -117 -219t-276 -99q-276 0 -381 189q-72 123 -72 393v364q-32 0 -56 24q-24 25 -24 57t23 56t57 23h160q32 1 56 -23t24 -57t-24 -57t-56 -23v-364q0 -229 55 -325t238 -97q80 0 155 48t78 110v628
q-32 0 -56 24q-24 25 -24 57t24 56t56 23h160z" />
    <glyph glyph-name="v" unicode="v" horiz-adv-x="931" 
d="M831 1325q33 1 57 -23t24 -57t-24 -57t-57 -23q-27 -558 -366 -806q-80 -56 -126 -72q-45 -15 -63 -23t-34 -11t-26 -6t-19 -5h-9q-36 -4 -62 20t-26 60v843q-32 0 -56 24q-24 25 -24 57t23 56t57 23h160q32 1 56 -23t24 -57t-24 -57t-56 -23v-739q63 25 121 69
q268 207 291 670q-33 2 -57 25q-23 24 -23 56t23 56q24 24 57 23h159z" />
    <glyph glyph-name="w" unicode="w" horiz-adv-x="1435" 
d="M1335 1325q33 1 57 -23t24 -57t-24 -57t-57 -23q-22 -554 -366 -806q-74 -52 -122 -70q-47 -17 -66 -25t-35 -11t-26 -6q-11 -3 -20 -5h-6q-38 -2 -64 22t-26 58v180q-172 -219 -414 -260q-34 -4 -62 20t-28 60v843q-32 0 -56 24q-24 25 -24 57t23 56t57 23h160
q32 1 56 -23t24 -57t-23 -55t-57 -25v-737q250 111 348 432q8 29 33 45q25 17 55 13t48 -28q19 -24 20 -52v-412q63 25 121 69q268 207 291 670q-33 2 -57 25q-23 24 -23 56t23 56q24 24 57 23h159z" />
    <glyph glyph-name="x" unicode="x" horiz-adv-x="1032" 
d="M913 401q33 1 57 -23t24 -56t-24 -57q-24 -24 -57 -23h-159q-33 0 -57 24q-23 24 -23 61q0 38 35 60l-177 281l-215 -291q23 -23 23 -55t-24 -57q-24 -24 -56 -23h-160q-32 0 -56 24t-24 57q0 35 23 57t57 21h39l301 412l-223 352h-29q-32 0 -56 24q-24 25 -24 57t24 56
t56 23h160q32 1 56 -23t24 -61t-33 -59l146 -230l172 240q-21 26 -21 56t23 54t57 23h160q32 1 56 -23t24 -57t-24 -57t-56 -23h-41l-258 -358l256 -406h24z" />
    <glyph glyph-name="y" unicode="y" horiz-adv-x="1040" 
d="M940 1325q32 1 56 -23t24 -57t-24 -57t-56 -23h-41l-332 -432v-332q33 1 57 -23t24 -56t-24 -57q-24 -24 -57 -23h-159q-33 0 -57 24q-23 24 -23 57q0 35 22 57t58 21v336l-273 428h-35q-32 0 -56 24q-24 25 -24 57t23 56t57 23h160q32 1 56 -23t24 -59t-27 -57l181 -285
l225 293q-19 24 -19 54t23 54t57 23h160z" />
    <glyph glyph-name="z" unicode="z" horiz-adv-x="923" 
d="M823 242h-723q-48 0 -70 45t7 84l598 794h-408q1 -33 -23 -57t-57 -23q-33 0 -57 24t-22 56v80q0 33 23 57q24 24 56 23h648q49 0 71 -44t-8 -83l-598 -797h483q0 33 24 56q25 23 57 23t56 -24t23 -57v-77q0 -33 -23 -57q-24 -23 -57 -23z" />
    <glyph glyph-name="braceleft" unicode="{" horiz-adv-x="602" 
d="M494 4h-2q-123 0 -211 88t-88 211v260q0 43 -29 79t-58 50l-30 17q-55 23 -56 83q0 60 56 80q113 57 117 148v258q0 125 88 213t211 88h2q36 0 62 -27q26 -26 26 -62t-26 -62t-62 -25h-2q-52 0 -88 -37t-35 -88v-258q0 -131 -103 -229q102 -98 103 -228v-260
q-1 -51 35 -87t88 -36h2q36 0 62 -26t26 -62t-26 -62t-62 -26z" />
    <glyph glyph-name="bar" unicode="|" horiz-adv-x="217" 
d="M109 -119q-37 0 -63 26t-26 62v1526q0 37 26 63t63 26t63 -26t25 -63v-1526q1 -37 -25 -63t-63 -25z" />
    <glyph glyph-name="braceright" unicode="}" horiz-adv-x="602" 
d="M111 4h-2q-37 0 -63 26t-26 62t26 63q26 26 63 25h2q51 0 87 36t35 87v260q0 129 103 228q-102 98 -103 229v258q0 51 -35 88q-36 37 -87 37h-2q-37 -1 -63 25t-26 62t26 62t63 27h2q123 0 211 -88t88 -213v-258q0 -43 28 -80t58 -51l30 -17q56 -20 56 -80t-56 -83
q-12 -7 -31 -17t-53 -48t-32 -81v-260q0 -123 -88 -211t-211 -88z" />
    <glyph glyph-name="asciitilde" unicode="~" horiz-adv-x="1292" 
d="M1272 905q0 -131 -94 -224t-217 -93t-237 58t-211 116t-165 57q-68 0 -109 -42q-42 -42 -42 -89t-26 -74q-27 -26 -63 -26t-62 26t-26 62q0 131 94 224t224 93q86 0 175 -36q89 -37 151 -79q166 -114 290 -114q59 0 102 42q42 42 42 89t25 73q26 26 62 26q35 0 61 -26
t26 -63z" />
    <glyph glyph-name="exclamdown" unicode="&#xa1;" horiz-adv-x="288" 
d="M20 1482q0 52 37 88t88 36t87 -36t36 -87t-36 -88t-87 -37t-88 36t-37 88zM57 1102q-1 36 25 62t62 26t63 -27t26 -61v-1036q-1 -35 -27 -62t-62 -27t-62 27t-25 62v1036z" />
    <glyph glyph-name="cent" unicode="&#xa2;" horiz-adv-x="794" 
d="M197 802q0 -98 53 -201t149 -142v665q-27 -10 -75 -44t-88 -107q-39 -73 -39 -171zM518 213q0 -25 -17 -42t-42 -17t-42 17t-18 42v61q-168 39 -273 193t-106 354q0 123 59 234t147 172t173 80v61q-1 27 17 44q18 18 43 18t42 -18t17 -44v-49q100 -4 199 -39
q33 -14 48 -47t2 -68t-46 -49t-68 -2q-70 29 -135 29v-703q62 6 112 30t85 11q35 -12 50 -45q15 -34 3 -68t-45 -49q-100 -49 -205 -55v-51z" />
    <glyph glyph-name="sterling" unicode="&#xa3;" horiz-adv-x="1374" 
d="M197 184q2 0 13 14q32 39 34 103v377h-135q-37 0 -63 26t-26 62t26 62t63 26h135v281q0 209 110 343t302 134q194 0 293 -125t106 -281q2 -38 -24 -64q-25 -26 -61 -27t-63 24t-29 77t-34 113q-53 106 -180 107q-83 0 -155 -52q-40 -30 -65 -94t-24 -155v-281h184
q35 0 62 -26q26 -26 26 -62t-26 -63q-26 -26 -62 -25h-184q0 -412 -8 -449q112 2 276 -33q164 -36 225 -44t151 -1t157 46q33 18 67 8t53 -41q15 -33 7 -68t-41 -53q-179 -102 -450 -57q-53 8 -153 28t-153 28q-160 26 -268 -7q-68 -20 -102 41t18 108h-2z" />
    <glyph glyph-name="currency" unicode="&#xa4;" horiz-adv-x="1013" 
d="M199 791q0 -101 91 -173t218 -72t217 74q90 73 90 172t-90 172q-90 72 -218 72t-218 -72t-90 -173zM25 792q0 173 139 295l-115 101q-27 24 -29 60t22 64t60 30t64 -23l158 -139q184 66 366 0l158 139q28 25 64 23t60 -30t22 -64t-29 -60l-115 -101q141 -123 141 -295
t-141 -296l115 -101q27 -25 29 -61t-22 -63t-60 -29t-64 22l-158 139q-92 -33 -183 -33t-133 17q-42 16 -57 8q-14 -8 -65 -54t-82 -74q-31 -27 -68 -25q-36 2 -60 30t-22 63q2 36 29 60l115 101q-139 123 -139 296z" />
    <glyph glyph-name="yen" unicode="&#xa5;" horiz-adv-x="1001" 
d="M600 655h160q36 -1 62 -27t26 -62t-26 -62t-62 -25h-160v-69h160q36 0 62 -26t26 -62t-26 -63q-26 -26 -62 -26h-160v-145q0 -36 -26 -62t-62 -26t-60 27q-26 27 -26 61v145h-160q-36 0 -62 26t-26 63q0 36 26 62t62 26h160v69h-160q-36 0 -62 26q-26 25 -26 61t26 63
t62 26h160v97l-393 698q-16 33 -7 68t42 52q34 17 68 8t50 -42l324 -578l305 576q16 33 51 43t68 -6q31 -18 42 -52t-7 -67l-369 -700v-97z" />
    <glyph glyph-name="brokenbar" unicode="&#xa6;" horiz-adv-x="217" 
d="M109 -8q-37 0 -63 26t-26 62v516q0 36 26 62t63 26t63 -26t25 -62v-516q1 -36 -25 -62t-63 -26zM109 889q-37 -1 -63 25t-26 63v518q0 37 26 63t63 26t63 -26t25 -63v-518q1 -37 -25 -63t-63 -25z" />
    <glyph glyph-name="section" unicode="&#xa7;" horiz-adv-x="1202" 
d="M709 604q174 -145 237 -242q60 70 60 169t-69 175t-187 173q-117 97 -175 161q-94 -18 -102 -106q-2 -62 34 -122t77 -99t125 -109zM1182 526q0 -209 -166 -342q31 -212 -122 -366t-368 -154q-168 0 -293 73t-180 202q-70 165 8 321t236 195q35 7 65 -11t40 -53
q9 -35 -9 -65t-53 -41q-80 -21 -121 -105t-5 -168t118 -128t198 -44t215 80q98 80 99 205q0 65 -40 131t-82 106t-121 104t-118 101t-92 101q-102 122 -92 276q4 88 53 155t131 97q-41 98 -13 207t120 170q98 55 194 51t172 -57t95 -131q7 -35 -13 -66t-55 -39t-65 11
t-39 55q-4 14 -33 31t-58 20q-145 0 -151 -111q-4 -61 33 -123q38 -62 76 -98q38 -37 118 -103q80 -65 119 -103t94 -101q105 -120 105 -283z" />
    <glyph glyph-name="dieresis" unicode="&#xa8;" horiz-adv-x="485" 
d="M465 1483q0 -41 -29 -70q-30 -29 -70 -29t-70 29t-30 70t30 71t71 29q41 1 69 -29t29 -71zM219 1483q0 -41 -29 -70q-30 -29 -70 -29t-70 29t-30 70t30 71t71 29q41 1 69 -29t29 -71z" />
    <glyph glyph-name="copyright" unicode="&#xa9;" horiz-adv-x="770" 
d="M391 580q-86 0 -143 69q-51 68 -51 151t49 143t133 61h2q47 0 80 -31t33 -79t-34 -74t-77 -19q-33 10 -26 44t40 25q7 -2 17 4t10 22t-13 28q-13 10 -30 10h-2q-55 0 -84 -41t-29 -95t35 -102t79 -47q44 0 75 16t46 -15q15 -32 -22 -51t-88 -19zM385 1079
q-119 0 -203 -85q-84 -86 -84 -204t84 -202t203 -84t203 84t84 204t-84 204t-203 83zM385 426q-152 0 -258 106q-107 106 -107 258t106 259q106 106 259 106q152 0 258 -106q107 -106 107 -258q0 -153 -106 -259t-259 -106z" />
    <glyph glyph-name="guillemotleft" unicode="&#xab;" horiz-adv-x="884" 
d="M519 248q-26 0 -42 14l-434 375q-23 18 -23 46t23 46l434 377q47 37 86 -9t-6 -85l-381 -328l381 -330q19 -14 21 -40t-16 -46t-43 -20zM804 248q-26 0 -42 14l-434 375q-20 18 -21 46q0 28 21 46l434 377q47 37 86 -9t-6 -85l-381 -328l381 -330q20 -14 21 -40t-16 -46
t-43 -20z" />
    <glyph glyph-name="registered" unicode="&#xae;" horiz-adv-x="770" 
d="M403 915h-65v-90q25 8 37 11q74 16 74 38q-1 16 -13 28t-33 13zM385 1155q152 0 258 -106q107 -107 107 -245t-76 -237q-60 -86 -108 -86t-72 39q-24 38 -59 138q-34 100 -62 104q-20 -2 -35 -12v-101q29 -4 29 -35q-1 -14 -11 -24t-24 -10h-60q-14 0 -24 10t-10 24
q0 31 28 35v266q-29 6 -28 35q0 14 10 26t24 11h129q47 0 82 -33t35 -84t-49 -79q-2 0 -16 -7q20 -31 57 -125q25 -77 49 -104q54 30 87 100q34 70 34 136q0 123 -87 209t-208 85q-121 0 -207 -86q-86 -85 -86 -207t86 -208t207 -86q39 0 72 8t43 -27q6 -33 -27 -43
q-47 -10 -88 -10q-152 0 -258 106q-107 106 -107 258t106 259q106 106 259 106z" />
    <glyph glyph-name="degree" unicode="&#xb0;" horiz-adv-x="477" 
d="M346 1332q0 44 -32 76t-75 32q-44 0 -75 -32t-31 -76t31 -75t75 -31q43 0 75 32q32 30 32 74zM240 1114q-90 0 -155 65t-65 155t65 152q65 64 154 64t153 -64t65 -154t-63 -154t-154 -64z" />
    <glyph glyph-name="plusminus" unicode="&#xb1;" horiz-adv-x="858" 
d="M750 356q36 0 62 -26t26 -61t-26 -61t-62 -26h-641q-37 0 -63 26t-26 62t26 61q26 26 63 25h641zM109 905q-37 0 -63 26q-26 25 -26 61t26 63t63 26h231v232q0 37 27 63t63 25q36 0 60 -26q26 -26 26 -62v-232h234q36 -1 62 -27t26 -62t-26 -62t-62 -25h-234v-233
q0 -37 -26 -63q-26 -25 -62 -25t-62 26t-26 62v233h-231z" />
    <glyph glyph-name="twosuperior" unicode="&#xb2;" horiz-adv-x="512" 
d="M117 1071q14 -6 33 19q-33 -1 -33 -19zM600 980q0 -20 -13 -32q-13 -14 -29 -16t-46 -2q-118 0 -241 94q-30 23 -31 25q-13 -13 -21 -25q-33 -49 -84 -49q-51 -1 -83 25t-32 72t33 80t81 34t85 -17q51 57 74 86t48 79q26 50 26 85t-26 57t-73 22q-46 0 -70 -16
q-24 -15 -51 -5q-25 11 -27 37t19 42q47 37 133 37t138 -51q52 -52 53 -112q0 -60 -27 -120q-28 -60 -56 -96t-77 -94q44 -30 69 -50q55 -46 142 -46l33 2q23 4 38 -11t15 -35z" />
    <glyph glyph-name="threesuperior" unicode="&#xb3;" horiz-adv-x="514" 
d="M245 952q-91 0 -158 52t-67 134q0 83 65 127t146 17q45 -14 31 -59t-67 -28t-73 -32t23 -82q42 -33 98 -33t106 36t50 104t-70 105q-70 36 -110 37q-39 1 -49 31t12 50l78 76h-121q-20 0 -35 13q-14 14 -14 34t14 34t35 15h238q31 0 43 -30t-10 -52l-99 -98q12 -4 41 -17
q142 -66 142 -188t-79 -184t-170 -62z" />
    <glyph glyph-name="acute" unicode="&#xb4;" horiz-adv-x="274" 
d="M60 1325q-15 0 -25 10q-31 27 -4 58l151 176q25 29 56 4t6 -57l-154 -177q-15 -14 -30 -14z" />
    <glyph glyph-name="periodcentered" unicode="&#xb7;" horiz-adv-x="323" 
d="M303 791q0 -57 -41 -99t-100 -41q-59 0 -101 41q-41 40 -41 98t41 100t101 42t100 -42q41 -42 41 -99z" />
    <glyph glyph-name="cedilla" unicode="&#xb8;" horiz-adv-x="323" 
d="M137 -55q-45 0 -83 19t-19 54q16 35 53 19q47 -27 98 -4q27 14 33 40t-10 40q-17 14 -63 29q-46 14 -65 24t-40 33t-21 45t12 34t27 11q17 0 29 -11t12 -28q8 -12 52 -26q129 -40 146 -101q9 -31 -1 -70q-16 -63 -78 -92q-37 -16 -82 -16z" />
    <glyph glyph-name="onesuperior" unicode="&#xb9;" horiz-adv-x="245" 
d="M177 967q-19 0 -34 14q-14 14 -14 33v405l-27 -26q-14 -17 -33 -17t-33 16t-16 34q0 19 15 34l108 109q23 23 53 11t29 -46v-520q0 -18 -14 -33q-15 -14 -34 -14z" />
    <glyph glyph-name="guillemotright" unicode="&#xbb;" horiz-adv-x="884" 
d="M366 248q-26 0 -44 20q-16 20 -16 46q2 26 22 40l381 330l-381 328q-45 39 -6 85t86 9l434 -377q22 -18 22 -46t-22 -46l-434 -375q-16 -14 -42 -14zM81 248q-26 0 -44 20q-16 20 -15 46t21 40l381 330l-381 328q-45 39 -6 85t86 9l434 -377q21 -18 21 -46t-21 -46
l-434 -375q-16 -14 -42 -14z" />
    <glyph glyph-name="onequarter" unicode="&#xbc;" horiz-adv-x="1236" 
d="M240 63q-35 0 -54 28q-18 28 -4 59l627 1396q8 23 33 32q24 9 46 -1t31 -34t-1 -46l-627 -1397q-16 -37 -51 -37zM1157 403q25 0 42 -17t17 -43t-16 -43q-18 -17 -43 -17h-18v-224q-1 -25 -19 -42t-43 -17t-42 17t-17 42v224h-273q-33 1 -50 29t-3 57l166 342
q10 23 35 29t47 -3q22 -10 29 -34q8 -24 -2 -46l-125 -254h176v281q0 25 17 42t42 17t43 -17t19 -42v-281h18zM211 838q-25 0 -42 17t-17 44v479l-29 -28q-18 -18 -43 -18t-41 18q-18 16 -19 42q0 26 19 42l129 131q31 29 65 12q37 -14 37 -55v-623q0 -27 -17 -44t-42 -17z
" />
    <glyph glyph-name="onehalf" unicode="&#xbd;" horiz-adv-x="1388" 
d="M897 1566q25 9 47 -1t30 -34q9 -24 -1 -46l-627 -1397q-8 -23 -33 -32t-47 1t-29 34q-9 24 1 46l626 1397q8 23 33 32zM893 188q16 -6 33 17q-29 -1 -33 -17zM774 186q0 54 40 96t98 42t102 -17q57 63 87 101t58 95q29 58 29 103t-38 68q-38 24 -85 22t-75 -19t-54 -5
q-37 14 -40 50t28 54q72 37 158 38t156 -55q71 -57 71 -151q-1 -94 -51 -178t-140 -184q102 -78 158 -98t133 -13q25 2 43 -14t22 -41t-14 -43t-43 -23q-37 2 -61 -2t-54 5q-32 9 -50 11t-44 16q-27 13 -50 23t-46 30q-24 20 -44 35t-30 22q-2 -2 -13 -16t-16 -19
q-42 -51 -123 -51q-34 0 -73 32t-39 86zM270 887q0 -25 -17 -43t-42 -18t-42 18t-17 43v479l-29 -29q-18 -18 -43 -18t-42 17t-18 43q0 26 19 42l129 131q30 29 66 13t36 -56v-622z" />
    <glyph glyph-name="threequarters" unicode="&#xbe;" horiz-adv-x="1466" 
d="M463 70q-23 10 -31 34t2 46l625 1396q10 23 34 32q25 9 47 -1t30 -34t-1 -46l-626 -1397q-9 -24 -33 -32t-47 2zM1386 403q25 0 42 -17q18 -17 18 -43t-18 -43t-42 -17h-18v-224q0 -25 -17 -42t-42 -17t-43 17t-19 42v224h-270q-33 1 -51 29t-4 57l168 342q27 51 79 26
q51 -27 27 -80l-125 -254h176v281q1 25 19 42t43 17t42 -17t17 -42v-281h18zM596 1077q0 -137 -96 -211t-202 -75q-106 0 -172 44q-64 44 -88 100q-44 102 27 198t216 57q23 -8 33 -30t3 -46t-29 -34q-22 -11 -52 -1t-63 -6q-32 -16 -32 -62t48 -74t109 -28t120 43t59 122
t-85 124t-140 45q-37 4 -49 39t14 64l88 86h-137q-25 0 -43 17t-19 42q0 25 18 42t44 17h283q41 0 56 -37t-13 -65l-115 -113q96 -35 157 -100q60 -66 60 -158z" />
    <glyph glyph-name="questiondown" unicode="&#xbf;" horiz-adv-x="1079" 
d="M477 1489q0 -51 -36 -88t-88 -37t-88 37t-36 88t36 87t87 36t88 -36t37 -87zM387 1061q0 -63 60 -109q59 -46 161 -91q248 -112 328 -185t101 -142t22 -128q0 -238 -201 -355q-142 -80 -336 -80t-348 126q-154 127 -154 299t134 249q34 18 68 8t52 -42q18 -33 8 -67
t-40 -52q-45 -25 -45 -86q0 -102 100 -180t211 -79q164 0 262 58q113 63 113 201q0 88 -70 145q-71 57 -195 113t-172 82q-156 82 -205 180q-30 59 -30 128t15 111t48 57t68 3t50 -45q15 -34 5 -60t-10 -59z" />
    <glyph glyph-name="Agrave" unicode="&#xc0;" horiz-adv-x="1619" 
d="M1122 967q160 47 301 -21v443q-162 -72 -301 -422zM1511 1583q37 1 63 -25t25 -63v-1405q1 -36 -25 -62t-63 -26h-116q-37 0 -63 27t-26 63t26 61q26 26 63 25h28v516q-10 61 -69 90t-131 23q-166 -16 -238 -250q-88 -283 -130 -395t-125 -201q-150 -159 -366 -139
q-206 17 -312 226q-54 106 -16 241t157 194q96 47 183 25t137 -102q50 -78 36 -167t-88 -147q-27 -24 -64 -18t-59 35t-19 65q4 36 33 57q44 35 12 84t-98 9t-69 -123q-2 -45 20 -86q66 -127 207 -121q88 6 161 72t113 176q18 47 105 321q139 461 244 658q57 109 122 186
h-141q-34 0 -60 -26q-26 -27 -26 -61t-26 -60t-62 -27q-36 0 -62 27t-26 61q0 109 77 185t185 77h483zM1362 1810q12 -28 2 -54t-36 -37t-52 -2t-37 36l-49 105q-12 26 -2 52t36 38t52 2t37 -35z" />
    <glyph glyph-name="Aacute" unicode="&#xc1;" horiz-adv-x="1619" 
d="M1122 967q160 47 301 -21v443q-162 -72 -301 -422zM1511 1583q37 1 63 -25t25 -63v-1405q1 -36 -25 -62t-63 -26h-116q-37 0 -63 27t-26 63t26 61q26 26 63 25h28v516q-10 61 -69 90t-131 23q-166 -16 -238 -250q-88 -283 -130 -395t-125 -201q-150 -159 -366 -139
q-206 17 -312 226q-54 106 -16 241t157 194q96 47 183 25t137 -102q50 -78 36 -167t-88 -147q-27 -24 -64 -18t-59 35t-19 65q4 36 33 57q44 35 12 84t-98 9t-69 -123q-2 -45 20 -86q66 -127 207 -121q88 6 161 72t113 176q18 47 105 321q139 461 244 658q57 109 122 186
h-141q-34 0 -60 -26q-26 -27 -26 -61t-26 -60t-62 -27q-36 0 -62 27t-26 61q0 109 77 185t185 77h483zM1254 1716q-15 0 -25 10q-31 27 -4 58l151 176q25 29 56 4t6 -57l-154 -176q-15 -15 -30 -15z" />
    <glyph glyph-name="Acircumflex" unicode="&#xc2;" horiz-adv-x="1619" 
d="M1389 1755q14 -18 -3 -35q-18 -14 -32 2l-64 70l-63 -70q-14 -16 -33 -2q-16 16 -2 35l80 88q18 18 37 0zM1122 967q160 47 301 -21v443q-162 -72 -301 -422zM1511 1583q37 1 63 -25t25 -63v-1405q1 -36 -25 -62t-63 -26h-116q-37 0 -63 27t-26 63t26 61q26 26 63 25h28
v516q-10 61 -69 90t-131 23q-166 -16 -238 -250q-88 -283 -130 -395t-125 -201q-150 -159 -366 -139q-206 17 -312 226q-54 106 -16 241t157 194q96 47 183 25t137 -102q50 -78 36 -167t-88 -147q-27 -24 -64 -18t-59 35t-19 65q4 36 33 57q44 35 12 84t-98 9t-69 -123
q-2 -45 20 -86q66 -127 207 -121q88 6 161 72t113 176q18 47 105 321q139 461 244 658q57 109 122 186h-141q-34 0 -60 -26q-26 -27 -26 -61t-26 -60t-62 -27q-36 0 -62 27t-26 61q0 109 77 185t185 77h483z" />
    <glyph glyph-name="Atilde" unicode="&#xc3;" horiz-adv-x="1619" 
d="M1122 967q160 47 301 -21v443q-162 -72 -301 -422zM1511 1583q37 1 63 -25t25 -63v-1405q1 -36 -25 -62t-63 -26h-116q-37 0 -63 27t-26 63t26 61q26 26 63 25h28v516q-10 61 -69 90t-131 23q-166 -16 -238 -250q-88 -283 -130 -395t-125 -201q-150 -159 -366 -139
q-206 17 -312 226q-54 106 -16 241t157 194q96 47 183 25t137 -102q50 -78 36 -167t-88 -147q-27 -24 -64 -18t-59 35t-19 65q4 36 33 57q44 35 12 84t-98 9t-69 -123q-2 -45 20 -86q66 -127 207 -121q88 6 161 72t113 176q18 47 105 321q139 461 244 658q57 109 122 186
h-141q-34 0 -60 -26q-26 -27 -26 -61t-26 -60t-62 -27q-36 0 -62 27t-26 61q0 109 77 185t185 77h483zM1360 1714q-55 0 -132 46t-106 46t-45 -16t-16 -36t-11 -30q-12 -10 -26 -10t-25 10q-10 10 -10 25q0 53 37 90t90 37t130 -46t109 -46t49 17t17 40q0 35 34 35t34 -44
t-37 -81t-92 -37z" />
    <glyph glyph-name="Adieresis" unicode="&#xc4;" horiz-adv-x="1619" 
d="M1122 967q160 47 301 -21v443q-162 -72 -301 -422zM1511 1583q37 1 63 -25t25 -63v-1405q1 -36 -25 -62t-63 -26h-116q-37 0 -63 27t-26 63t26 61q26 26 63 25h28v516q-10 61 -69 90t-131 23q-166 -16 -238 -250q-88 -283 -130 -395t-125 -201q-150 -159 -366 -139
q-206 17 -312 226q-54 106 -16 241t157 194q96 47 183 25t137 -102q50 -78 36 -167t-88 -147q-27 -24 -64 -18t-59 35t-19 65q4 36 33 57q44 35 12 84t-98 9t-69 -123q-2 -45 20 -86q66 -127 207 -121q88 6 161 72t113 176q18 47 105 321q139 461 244 658q57 109 122 186
h-141q-34 0 -60 -26q-26 -27 -26 -61t-26 -60t-62 -27q-36 0 -62 27t-26 61q0 109 77 185t185 77h483zM1542 1810q0 -42 -29 -70t-69 -28t-71 29q-30 29 -30 69t30 71q30 30 71 30q42 0 70 -30t28 -71zM1296 1810q0 -42 -28 -70t-70 -28q-41 0 -71 29q-29 29 -29 69t29 71
q30 30 71 30q42 0 70 -30t28 -71z" />
    <glyph glyph-name="Aring" unicode="&#xc5;" horiz-adv-x="1619" 
d="M1122 967q160 47 301 -21v443q-162 -72 -301 -422zM1511 1583q37 1 63 -25t25 -63v-1405q1 -36 -25 -62t-63 -26h-116q-37 0 -63 27t-26 63t26 61q26 26 63 25h28v516q-10 61 -69 90t-131 23q-166 -16 -238 -250q-88 -283 -130 -395t-125 -201q-150 -159 -366 -139
q-206 17 -312 226q-54 106 -16 241t157 194q96 47 183 25t137 -102q50 -78 36 -167t-88 -147q-27 -24 -64 -18t-59 35t-19 65q4 36 33 57q44 35 12 84t-98 9t-69 -123q-2 -45 20 -86q66 -127 207 -121q88 6 161 72t113 176q18 47 105 321q139 461 244 658q57 109 122 186
h-141q-34 0 -60 -26q-26 -27 -26 -61t-26 -60t-62 -27q-36 0 -62 27t-26 61q0 109 77 185t185 77h483zM1305 1907q-25 1 -42 -17t-17 -43t16 -42q18 -17 43 -17t42 17t17 42t-17 43t-42 17zM1306 1708q-58 0 -100 41q-41 41 -41 98t41 99q40 42 98 41q58 0 99 -41
q41 -40 41 -98t-40 -99t-98 -41z" />
    <glyph glyph-name="AE" unicode="&#xc6;" horiz-adv-x="2422" 
d="M1122 967q58 20 146 16t155 -37v443q-162 -72 -301 -422zM1028 1407q-34 0 -60 -26q-26 -27 -26 -61t-26 -60t-62 -27q-36 0 -62 27t-26 61q0 109 77 185t185 77h1286q35 1 62 -25t26 -63v-176q0 -35 -26 -61q-27 -25 -63 -25q-35 -1 -61 25t-26 61v88h-627v-506
q78 43 186 63t164 18q56 -3 86 -3q31 0 55 -28q24 -27 20 -63t-32 -60q-26 -24 -63 -21q-373 0 -416 -162v-467h627v88q0 35 26 62q26 26 62 26t62 -26q27 -26 26 -62v-176q0 -36 -26 -62t-62 -26h-962q-143 0 -222 125q-61 98 -30 176q20 51 80 51q36 0 62 -26t26 -64
t24 -62t60 -24h71v516q-10 61 -69 90t-131 23h-6q-162 -12 -242 -283q-2 -8 -39 -129t-80 -233t-126 -201q-150 -159 -366 -139q-206 17 -312 226q-54 106 -16 241t146 188t195 31q86 -22 136 -102q50 -78 36 -167t-88 -147q-27 -24 -64 -18t-59 35t-19 65q4 36 33 57
q45 35 13 82q-29 47 -87 17t-75 -94q-16 -66 14 -121q66 -127 207 -121q88 6 161 72t113 176q18 47 105 321q139 461 244 658q57 109 122 186h-141z" />
    <glyph glyph-name="Ccedilla" unicode="&#xc7;" horiz-adv-x="1224" 
d="M739 -358q-45 0 -83 19t-19 54q16 35 53 19q55 -26 90 -8t41 44t-10 40q-17 14 -63 29t-65 25t-40 32q-20 23 -20 51v8q-104 25 -203 86q-184 115 -292 331t-108 472q0 317 166 540q199 262 539 263q174 0 303 -114t129 -278q1 -163 -115 -275t-276 -83h-12
q-143 33 -211 164q-49 97 -21 201t127 153q33 16 68 6t51 -43q16 -34 5 -68t-42 -49t-39 -51t8 -69q33 -66 105 -74t125 46t53 136t-59 142q-84 84 -197 79h-2q-217 0 -373 -162t-155 -464q0 -207 87 -386t230 -270q256 -158 563 -4q33 16 68 4t50 -45t3 -67t-45 -49
q-229 -111 -446 -86q7 -7 48 -19q175 -51 144 -172q-16 -63 -78 -92q-37 -16 -82 -16z" />
    <glyph glyph-name="Egrave" unicode="&#xc8;" horiz-adv-x="1351" 
d="M1243 1233q-37 -1 -63 25t-25 61v88h-627v-506q78 43 186 63t164 18q56 -3 86 -3t54 -28q24 -27 20 -63t-30 -60t-64 -21q-373 0 -416 -162v-467h627v88q0 35 26 62q27 26 63 26t62 -26t25 -62v-176q1 -36 -25 -62t-63 -26h-962q-106 0 -184 77q-77 77 -77 185v2
q0 35 26 62q26 26 63 26t63 -26t25 -64t25 -62t59 -24h73v1229h-73q-35 0 -60 -26q-25 -27 -25 -61t-25 -60q-27 -26 -63 -27q-36 0 -62 27t-26 61q0 109 76 185t185 77h962q37 1 63 -25t25 -63v-176q0 -35 -25 -61q-26 -25 -63 -25zM827 1810q13 -28 3 -54t-36 -37t-52 -2
t-37 36l-50 105q-12 26 -2 52t36 38q27 12 53 2t36 -35z" />
    <glyph glyph-name="Eacute" unicode="&#xc9;" horiz-adv-x="1351" 
d="M1243 1233q-37 -1 -63 25t-25 61v88h-627v-506q78 43 186 63t164 18q56 -3 86 -3t54 -28q24 -27 20 -63t-30 -60t-64 -21q-373 0 -416 -162v-467h627v88q0 35 26 62q27 26 63 26t62 -26t25 -62v-176q1 -36 -25 -62t-63 -26h-962q-106 0 -184 77q-77 77 -77 185v2
q0 35 26 62q26 26 63 26t63 -26t25 -64t25 -62t59 -24h73v1229h-73q-35 0 -60 -26q-25 -27 -25 -61t-25 -60q-27 -26 -63 -27q-36 0 -62 27t-26 61q0 109 76 185t185 77h962q37 1 63 -25t25 -63v-176q0 -35 -25 -61q-26 -25 -63 -25zM712 1716q-15 0 -26 10q-31 27 -4 58
l152 176q26 29 56 4t5 -57l-154 -176q-14 -15 -29 -15z" />
    <glyph glyph-name="Ecircumflex" unicode="&#xca;" horiz-adv-x="1351" 
d="M848 1755q14 -18 -2 -35q-18 -14 -33 2l-63 70l-64 -70q-14 -16 -33 -2q-16 16 -2 35l80 88q18 18 37 0zM1243 1233q-37 -1 -63 25t-25 61v88h-627v-506q78 43 186 63t164 18q56 -3 86 -3t54 -28q24 -27 20 -63t-30 -60t-64 -21q-373 0 -416 -162v-467h627v88q0 35 26 62
q27 26 63 26t62 -26t25 -62v-176q1 -36 -25 -62t-63 -26h-962q-106 0 -184 77q-77 77 -77 185v2q0 35 26 62q26 26 63 26t63 -26t25 -64t25 -62t59 -24h73v1229h-73q-35 0 -60 -26q-25 -27 -25 -61t-25 -60q-27 -26 -63 -27q-36 0 -62 27t-26 61q0 109 76 185t185 77h962
q37 1 63 -25t25 -63v-176q0 -35 -25 -61q-26 -25 -63 -25z" />
    <glyph glyph-name="Edieresis" unicode="&#xcb;" horiz-adv-x="1351" 
d="M1243 1233q-37 -1 -63 25t-25 61v88h-627v-506q78 43 186 63t164 18q56 -3 86 -3t54 -28q24 -27 20 -63t-30 -60t-64 -21q-373 0 -416 -162v-467h627v88q0 35 26 62q27 26 63 26t62 -26t25 -62v-176q1 -36 -25 -62t-63 -26h-962q-106 0 -184 77q-77 77 -77 185v2
q0 35 26 62q26 26 63 26t63 -26t25 -64t25 -62t59 -24h73v1229h-73q-35 0 -60 -26q-25 -27 -25 -61t-25 -60q-27 -26 -63 -27q-36 0 -62 27t-26 61q0 109 76 185t185 77h962q37 1 63 -25t25 -63v-176q0 -35 -25 -61q-26 -25 -63 -25zM1010 1810q0 -42 -29 -70t-70 -28
t-71 29t-29 69q0 40 30 71q31 30 71 30t69 -30t29 -71zM764 1810q0 -42 -29 -70t-69 -28t-71 29q-30 29 -30 69t30 71q30 30 71 30q42 0 70 -30t28 -71z" />
    <glyph glyph-name="Igrave" unicode="&#xcc;" horiz-adv-x="856" 
d="M656 -94q-76 0 -188 53t-208 41q-40 -4 -68 20t-32 58t20 64t58 32q106 12 202 -16v1253q-92 39 -168 30t-75 -44q0 -18 12 -19q35 2 63 -22t29 -62t-23 -64t-61 -28h-8q-78 0 -133 58q-56 58 -56 136q0 79 56 142t162 76q166 18 329 -70q84 -37 110 -12q27 24 63 22
t61 -28t23 -63q-2 -36 -29 -60q-74 -70 -179 -57v-1258q41 -12 65 10q23 22 59 19q36 -2 61 -29q25 -28 23 -64t-29 -61q-63 -57 -139 -57zM586 1810q12 -28 2 -54t-36 -37t-52 -2t-37 36l-49 105q-12 26 -2 52t34 38q27 12 54 2t37 -35z" />
    <glyph glyph-name="Iacute" unicode="&#xcd;" horiz-adv-x="845" 
d="M656 -94q-76 0 -188 53t-208 41q-40 -4 -68 20t-32 58t20 64t58 32q106 12 202 -16v1253q-92 39 -168 30t-75 -44q0 -18 12 -19q35 2 63 -22t29 -62t-23 -64t-61 -28h-8q-78 0 -133 58q-56 58 -56 136q0 79 56 142t162 76q166 18 329 -70q84 -37 110 -12q27 24 63 22
t61 -28t23 -63q-2 -36 -29 -60q-74 -70 -179 -57v-1258q41 -12 65 10q23 22 59 19q36 -2 61 -29q25 -28 23 -64t-29 -61q-63 -57 -139 -57zM470 1716q-15 0 -26 10q-31 27 -4 58l152 176q26 29 56 4t5 -57l-153 -176q-15 -15 -30 -15z" />
    <glyph glyph-name="Icircumflex" unicode="&#xce;" horiz-adv-x="845" 
d="M623 1755q14 -18 -2 -35q-18 -14 -33 2l-64 70l-63 -70q-14 -16 -33 -2q-16 16 -2 35l80 88q18 18 37 0zM656 -94q-76 0 -188 53t-208 41q-40 -4 -68 20t-32 58t20 64t58 32q106 12 202 -16v1253q-92 39 -168 30t-75 -44q0 -18 12 -19q35 2 63 -22t29 -62t-23 -64
t-61 -28h-8q-78 0 -133 58q-56 58 -56 136q0 79 56 142t162 76q166 18 329 -70q84 -37 110 -12q27 24 63 22t61 -28t23 -63q-2 -36 -29 -60q-74 -70 -179 -57v-1258q41 -12 65 10q23 22 59 19q36 -2 61 -29q25 -28 23 -64t-29 -61q-63 -57 -139 -57z" />
    <glyph glyph-name="Idieresis" unicode="&#xcf;" horiz-adv-x="845" 
d="M656 -94q-76 0 -188 53t-208 41q-40 -4 -68 20t-32 58t20 64t58 32q106 12 202 -16v1253q-92 39 -168 30t-75 -44q0 -18 12 -19q35 2 63 -22t29 -62t-23 -64t-61 -28h-8q-78 0 -133 58q-56 58 -56 136q0 79 56 142t162 76q166 18 329 -70q84 -37 110 -12q27 24 63 22
t61 -28t23 -63q-2 -36 -29 -60q-74 -70 -179 -57v-1258q41 -12 65 10q23 22 59 19q36 -2 61 -29q25 -28 23 -64t-29 -61q-63 -57 -139 -57zM739 1810q-1 -42 -29 -70t-69 -28t-71 29t-30 69t30 71q30 30 71 30t69 -30t29 -71zM494 1810q0 -42 -29 -70t-70 -28t-71 29t-29 69
q0 40 30 71q31 30 71 30t69 -30t29 -71z" />
    <glyph glyph-name="Eth" unicode="&#xd0;" horiz-adv-x="1544" 
d="M713 31q180 0 328 97t229 249q80 153 80 315t-80 301t-201 227t-252 137q-131 50 -242 50h-47v-336h160q37 1 63 -25q25 -26 25 -63t-26 -63t-62 -25h-160v-199q113 -48 140 -156q28 -108 -36 -201t-186 -97q-36 -2 -62 24t-28 61q-2 37 23 63t61 28q50 2 56 57t-56 67
t-112 -30q-48 -41 -62 -101t10 -125q58 -155 223 -218q95 -37 214 -37zM575 1583q145 0 309 -63q375 -144 546 -455q94 -172 94 -377t-102 -396q-102 -192 -290 -314q-189 -122 -436 -122t-428 146q-180 145 -180 375q0 125 76 219t190 117v182h-159q-37 0 -63 26
q-26 27 -26 63t26 62t63 25h159v336h-73q-35 0 -60 -26q-25 -27 -25 -61t-25 -60q-27 -26 -63 -27q-36 0 -62 27t-26 61q0 109 76 185t185 77h294z" />
    <glyph glyph-name="Ntilde" unicode="&#xd1;" horiz-adv-x="2017" 
d="M1323 1710q-70 0 -166 58t-132 58t-56 -21q-21 -22 -21 -45q0 -22 -13 -36t-31 -14t-32 13q-12 13 -12 32q0 66 46 112t113 46q67 1 162 -57t135 -58t62 22t21 45q0 23 12 35q13 12 31 13q18 0 30 -12t13 -31q0 -66 -46 -113t-116 -47zM1909 1583q37 1 63 -25t25 -63
q0 -37 -26 -63t-62 -25h-17v-1317q0 -36 -26 -62t-76 -26q-98 0 -217 86q-78 58 -172 209q-94 150 -249 535t-265 505v-583q0 -307 -15 -406q-54 -385 -405 -477q-113 -31 -221 2t-172 118q-65 85 -72 182q-6 97 45 185q86 147 238 142q70 -2 130 -42t89 -102
q57 -123 -29 -237q-20 -29 -57 -34t-66 16t-35 59t17 66q22 28 12 52t-35 36q-25 13 -57 5t-55 -49q-55 -96 23 -180t198 -49h2q170 47 220 149q69 139 69 348v869h-72q-35 0 -61 -26q-26 -25 -25 -61q0 -36 -26 -62q-27 -26 -63 -26t-62 26t-25 63q0 109 78 185t184 77h121
q103 0 206 -77q71 -54 163 -206q68 -107 166 -347q97 -240 128 -309q114 -253 177 -331q63 -77 116 -108v1202h-14q-37 0 -63 26q-25 27 -25 63t25 62q26 26 63 25h207z" />
    <glyph glyph-name="Ograve" unicode="&#xd2;" horiz-adv-x="1458" 
d="M1438 786q0 -352 -206 -605t-503 -253t-508 258q-201 252 -201 600q0 66 8 124t37 78q29 22 65 18t58 -34t15 -75q-6 -45 -6 -111q-1 -282 155 -482t376 -200t377 201t157 483t-157 482q-157 201 -376 200q-170 0 -309 -127q-80 -74 -83 -176t65 -180t172 -83
q106 -5 184 67q24 20 26 62t-43 64q-45 23 -78 -7t-69 -28t-60 30t-22 64t29 58q78 70 181 65t173 -83t65 -181t-81 -173q-2 0 -2 -2q-129 -117 -309 -110t-297 138q-117 130 -111 306t141 299q190 174 428 174q297 0 508 -258q201 -251 201 -603zM827 1810q13 -28 3 -54
t-36 -37t-52 -2t-37 36l-50 105q-12 26 -2 52t36 38q27 12 53 2t36 -35z" />
    <glyph glyph-name="Oacute" unicode="&#xd3;" horiz-adv-x="1458" 
d="M1438 786q0 -352 -206 -605t-503 -253t-508 258q-201 252 -201 600q0 66 8 124t37 78q29 22 65 18t58 -34t15 -75q-6 -45 -6 -111q-1 -282 155 -482t376 -200t377 201t157 483t-157 482q-157 201 -376 200q-170 0 -309 -127q-80 -74 -83 -176t65 -180t172 -83
q106 -5 184 67q24 20 26 62t-43 64q-45 23 -78 -7t-69 -28t-60 30t-22 64t29 58q78 70 181 65t173 -83t65 -181t-81 -173q-2 0 -2 -2q-129 -117 -309 -110t-297 138q-117 130 -111 306t141 299q190 174 428 174q297 0 508 -258q201 -251 201 -603zM712 1716q-15 0 -26 10
q-31 27 -4 58l152 176q26 29 56 4t5 -57l-154 -176q-14 -15 -29 -15z" />
    <glyph glyph-name="Ocircumflex" unicode="&#xd4;" horiz-adv-x="1458" 
d="M848 1755q14 -18 -2 -35q-18 -14 -33 2l-63 70l-64 -70q-14 -16 -33 -2q-16 16 -2 35l80 88q18 18 37 0zM1438 786q0 -352 -206 -605t-503 -253t-508 258q-201 252 -201 600q0 66 8 124t37 78q29 22 65 18t58 -34t15 -75q-6 -45 -6 -111q-1 -282 155 -482t376 -200
t377 201t157 483t-157 482q-157 201 -376 200q-170 0 -309 -127q-80 -74 -83 -176t65 -180t172 -83q106 -5 184 67q24 20 26 62t-43 64q-45 23 -78 -7t-69 -28t-60 30t-22 64t29 58q78 70 181 65t173 -83t65 -181t-81 -173q-2 0 -2 -2q-129 -117 -309 -110t-297 138
q-117 130 -111 306t141 299q190 174 428 174q297 0 508 -258q201 -251 201 -603z" />
    <glyph glyph-name="Otilde" unicode="&#xd5;" horiz-adv-x="1458" 
d="M1438 786q0 -352 -206 -605t-503 -253t-508 258q-201 252 -201 600q0 66 8 124t37 78q29 22 65 18t58 -34t15 -75q-6 -45 -6 -111q-1 -282 155 -482t376 -200t377 201t157 483t-157 482q-157 201 -376 200q-170 0 -309 -127q-80 -74 -83 -176t65 -180t172 -83
q106 -5 184 67q24 20 26 62t-43 64q-45 23 -78 -7t-69 -28t-60 30t-22 64t29 58q78 70 181 65t173 -83t65 -181t-81 -173q-2 0 -2 -2q-129 -117 -309 -110t-297 138q-117 130 -111 306t141 299q190 174 428 174q297 0 508 -258q201 -251 201 -603zM846 1710q-70 0 -166 58
t-132 58t-56 -21q-20 -22 -20 -45q0 -22 -14 -36t-32 -14t-31 13q-12 13 -12 32q0 66 46 112t113 46q68 1 162 -57t134 -58t62 22t22 45t12 35t30 13q18 0 31 -12q12 -12 13 -31q0 -66 -46 -113t-116 -47z" />
    <glyph glyph-name="Odieresis" unicode="&#xd6;" horiz-adv-x="1458" 
d="M1438 786q0 -352 -206 -605t-503 -253t-508 258q-201 252 -201 600q0 66 8 124t37 78q29 22 65 18t58 -34t15 -75q-6 -45 -6 -111q-1 -282 155 -482t376 -200t377 201t157 483t-157 482q-157 201 -376 200q-170 0 -309 -127q-80 -74 -83 -176t65 -180t172 -83
q106 -5 184 67q24 20 26 62t-43 64q-45 23 -78 -7t-69 -28t-60 30t-22 64t29 58q78 70 181 65t173 -83t65 -181t-81 -173q-2 0 -2 -2q-129 -117 -309 -110t-297 138q-117 130 -111 306t141 299q190 174 428 174q297 0 508 -258q201 -251 201 -603zM1010 1810q0 -42 -29 -70
t-70 -28t-71 29t-29 69q0 40 30 71q31 30 71 30t69 -30t29 -71zM764 1810q0 -42 -29 -70t-69 -28t-71 29q-30 29 -30 69t30 71q30 30 71 30q42 0 70 -30t28 -71z" />
    <glyph glyph-name="multiply" unicode="&#xd7;" horiz-adv-x="669" 
d="M562 477q-36 0 -62 25l-164 166l-166 -166q-26 -25 -62 -25t-62 26q-26 25 -26 61t27 63l164 164l-164 165q-27 25 -27 62t27 61q25 27 61 27t62 -27l166 -164l164 164q26 27 62 27t62 -26t26 -62t-25 -62l-166 -165l166 -164q25 -27 25 -63t-25 -62q-27 -25 -63 -25z
" />
    <glyph glyph-name="Oslash" unicode="&#xd8;" horiz-adv-x="1458" 
d="M742 119q206 1 363 201t157 483q0 182 -72 342q-125 -162 -438 -475q-268 -272 -365 -391q149 -160 355 -160zM1087 1300l3 5q-152 180 -367 180q-215 -1 -371 -201t-155 -481q0 -207 86 -375q104 123 400 423t404 449zM1438 803q0 -352 -205 -606t-504 -254
q-250 0 -444 190q-61 -111 -11 -145q29 -20 36 -56t-13 -66t-56 -37t-65 13q-92 63 -103 170t95 267q-147 229 -148 524q0 352 206 605t503 253q260 0 455 -199q43 100 8 158q-18 31 -10 67t39 55t65 11t55 -41q101 -161 -38 -403q135 -227 135 -506z" />
    <glyph glyph-name="Ugrave" unicode="&#xd9;" horiz-adv-x="1533" 
d="M1425 1583q37 1 63 -25t26 -63t-26 -63t-63 -25h-16v-801q0 -303 -126 -475t-400 -174q-186 0 -313 92q-107 81 -158 230q-58 159 -58 434v694h-73q-35 0 -60 -26q-25 -25 -25 -61t-25 -62q-27 -26 -63 -26t-62 26t-26 61q0 109 77 187t184 77h239q37 1 63 -25
q25 -26 25 -62t-22 -60t-58 -29v-694q0 -348 99 -471q49 -61 109 -85t147 -24q195 0 273 121t77 352v801h-16q-35 0 -61 26q-26 27 -26 63t26 62t61 25h208zM930 1810q12 -28 2 -54t-36 -37t-52 -2t-37 36l-49 105q-12 26 -2 52t36 38t52 2t37 -35z" />
    <glyph glyph-name="Uacute" unicode="&#xda;" horiz-adv-x="1533" 
d="M1425 1583q37 1 63 -25t26 -63t-26 -63t-63 -25h-16v-801q0 -303 -126 -475t-400 -174q-186 0 -313 92q-107 81 -158 230q-58 159 -58 434v694h-73q-35 0 -60 -26q-25 -25 -25 -61t-25 -62q-27 -26 -63 -26t-62 26t-26 61q0 109 77 187t184 77h239q37 1 63 -25
q25 -26 25 -62t-22 -60t-58 -29v-694q0 -348 99 -471q49 -61 109 -85t147 -24q195 0 273 121t77 352v801h-16q-35 0 -61 26q-26 27 -26 63t26 62t61 25h208zM814 1716q-15 0 -26 10q-31 27 -4 58l152 176q26 29 56 4t5 -57l-153 -176q-15 -15 -30 -15z" />
    <glyph glyph-name="Ucircumflex" unicode="&#xdb;" horiz-adv-x="1533" 
d="M971 1755q14 -18 -2 -35q-18 -14 -33 2l-64 70l-63 -70q-14 -16 -33 -2q-16 16 -2 35l80 88q18 18 37 0zM1425 1583q37 1 63 -25t26 -63t-26 -63t-63 -25h-16v-801q0 -303 -126 -475t-400 -174q-186 0 -313 92q-107 81 -158 230q-58 159 -58 434v694h-73q-35 0 -60 -26
q-25 -25 -25 -61t-25 -62q-27 -26 -63 -26t-62 26t-26 61q0 109 77 187t184 77h239q37 1 63 -25q25 -26 25 -62t-22 -60t-58 -29v-694q0 -348 99 -471q49 -61 109 -85t147 -24q195 0 273 121t77 352v801h-16q-35 0 -61 26q-26 27 -26 63t26 62t61 25h208z" />
    <glyph glyph-name="Udieresis" unicode="&#xdc;" horiz-adv-x="1513" 
d="M1090 1810q0 -42 -29 -70t-70 -28t-71 29t-29 69q0 40 30 71q31 30 71 30t69 -30t29 -71zM844 1810q0 -42 -29 -70t-70 -28t-71 29t-29 69q0 40 30 71q31 30 71 30t69 -30t29 -71zM1425 1583q37 1 63 -25t26 -63t-26 -63t-63 -25h-16v-801q0 -303 -126 -475t-400 -174
q-186 0 -313 92q-107 81 -158 230q-58 159 -58 434v694h-73q-35 0 -60 -26q-25 -25 -25 -61t-25 -62q-27 -26 -63 -26t-62 26t-26 61q0 109 77 187t184 77h239q37 1 63 -25q25 -26 25 -62t-22 -60t-58 -29v-694q0 -348 99 -471q49 -61 109 -85t147 -24q195 0 273 121t77 352
v801h-16q-35 0 -61 26q-26 27 -26 63t26 62t61 25h208z" />
    <glyph glyph-name="Yacute" unicode="&#xdd;" horiz-adv-x="1705" 
d="M683 1712q-15 0 -26 10q-31 27 -4 58l152 176q25 29 55 4t6 -57l-153 -177q-15 -14 -30 -14zM1217 1581q37 0 63 -26q26 -27 25 -63q0 -36 -26 -62t-62 -25h-33l-430 -1292q-70 -215 -154 -329t-258 -171q-110 -39 -220 -12t-180 107t-81 178q-12 97 33 188
q76 150 229 153q70 3 132 -33t95 -96q63 -117 -14 -237q-20 -31 -56 -38t-67 13t-38 55t13 66q33 49 -12 82q-47 33 -94 -4q-18 -16 -31 -39q-47 -94 21 -168q84 -96 213 -49h2q97 31 132 69q36 38 62 66t63 134q37 107 44 122l92 279l-399 958q-53 0 -79 -25
q-26 -26 -26 -62t-26 -62t-62 -26t-62 26t-26 61q0 109 77 187t185 77h156q36 1 62 -25t26 -69t-41 -70l301 -717l233 707q-63 18 -63 84q0 37 26 63t62 25h193z" />
    <glyph glyph-name="Thorn" unicode="&#xde;" horiz-adv-x="921" 
d="M475 537q104 -1 178 73t74 178t-74 178t-178 74h-278v-503h278zM475 1217q176 0 301 -126q125 -127 125 -303t-125 -302t-301 -126h-278v-268q0 -36 -26 -62q-27 -26 -63 -26t-62 26t-26 62v1399q0 35 26 61t63 27q37 0 63 -27t25 -61v-274h278z" />
    <glyph glyph-name="germandbls" unicode="&#xdf;" horiz-adv-x="1206" 
d="M113 2q-37 0 -63 26t-25 62v973q-18 221 96 370q115 148 340 148q173 0 279 -76t106 -213t-124 -288q-52 -63 -63 -82q25 -12 102 -36t140 -52t133 -72q70 -45 111 -120q41 -76 41 -192t-58 -218q-104 -181 -356 -214q-112 -14 -224 13t-198 87t-104 158t39 182t157 104
q100 19 183 -40q29 -20 35 -56t-13 -66q-20 -30 -56 -36t-63 13q-28 18 -56 12t-43 -29q-15 -24 -10 -52t27 -44q64 -43 158 -61q230 -44 341 78q65 70 65 178t-73 158t-179 84t-136 45q-143 52 -144 148q-1 74 47 142q49 68 97 132t48 124q0 113 -209 113q-143 0 -210 -92
t-50 -236v-987q1 -36 -25 -62t-63 -26z" />
    <glyph glyph-name="agrave" unicode="&#xe0;" horiz-adv-x="933" 
d="M731 1569q12 -27 2 -53t-36 -38q-25 -11 -51 -2t-38 35l-49 105q-12 26 -2 52t36 38q27 12 53 2t36 -35zM330 766q154 82 344 76v299q-238 -94 -344 -375zM834 403q32 1 56 -23t24 -56t-24 -57q-24 -24 -56 -23h-160q-35 0 -58 24t-22 56q0 32 24 56t56 23v279
q-234 8 -350 -122q-57 -65 -62 -159q34 1 56 -23t22 -56t-24 -57q-24 -24 -56 -23h-160q-32 0 -56 24t-24 57q0 35 23 57t57 21h2q20 514 312 766q72 61 173 109t156 49q35 5 63 -19t28 -61v-842z" />
    <glyph glyph-name="aacute" unicode="&#xe1;" horiz-adv-x="933" 
d="M423 1325q-15 0 -26 10q-31 27 -4 58l152 176q25 29 55 4t6 -57l-153 -177q-15 -14 -30 -14zM330 766q154 82 344 76v299q-238 -94 -344 -375zM834 403q32 1 56 -23t24 -56t-24 -57q-24 -24 -56 -23h-160q-35 0 -58 24t-22 56q0 32 24 56t56 23v279q-234 8 -350 -122
q-57 -65 -62 -159q34 1 56 -23t22 -56t-24 -57q-24 -24 -56 -23h-160q-32 0 -56 24t-24 57q0 35 23 57t57 21h2q20 514 312 766q72 61 173 109t156 49q35 5 63 -19t28 -61v-842z" />
    <glyph glyph-name="acircumflex" unicode="&#xe2;" horiz-adv-x="933" 
d="M330 766q154 82 344 76v299q-238 -94 -344 -375zM834 403q32 1 56 -23t24 -56t-24 -57q-24 -24 -56 -23h-160q-35 0 -58 24t-22 56q0 32 24 56t56 23v279q-234 8 -350 -122q-57 -65 -62 -159q34 1 56 -23t22 -56t-24 -57q-24 -24 -56 -23h-160q-32 0 -56 24t-24 57
q0 35 23 57t57 21h2q20 514 312 766q72 61 173 109t156 49q35 5 63 -19t28 -61v-842zM659 1487q14 -18 -2 -35q-18 -14 -32 2l-64 70l-63 -70q-14 -16 -33 -2q-16 16 -2 35l80 88q18 18 37 0z" />
    <glyph glyph-name="atilde" unicode="&#xe3;" horiz-adv-x="933" 
d="M627 1419q-55 0 -132 46t-106 46t-45 -16q-16 -15 -16 -35t-12 -30q-27 -23 -50 0q-10 10 -10 24q0 53 37 90t90 37t130 -46t109 -46t49 17t17 40q0 35 34 35t34 -44t-37 -81t-92 -37zM330 766q154 82 344 76v299q-238 -94 -344 -375zM834 403q32 1 56 -23t24 -56
t-24 -57q-24 -24 -56 -23h-160q-35 0 -58 24t-22 56q0 32 24 56t56 23v279q-234 8 -350 -122q-57 -65 -62 -159q34 1 56 -23t22 -56t-24 -57q-24 -24 -56 -23h-160q-32 0 -56 24t-24 57q0 35 23 57t57 21h2q20 514 312 766q72 61 173 109t156 49q35 5 63 -19t28 -61v-842z
" />
    <glyph glyph-name="adieresis" unicode="&#xe4;" horiz-adv-x="933" 
d="M330 766q154 82 344 76v299q-238 -94 -344 -375zM834 403q32 1 56 -23t24 -56t-24 -57q-24 -24 -56 -23h-160q-35 0 -58 24t-22 56q0 32 24 56t56 23v279q-234 8 -350 -122q-57 -65 -62 -159q34 1 56 -23t22 -56t-24 -57q-24 -24 -56 -23h-160q-32 0 -56 24t-24 57
q0 35 23 57t57 21h2q20 514 312 766q72 61 173 109t156 49q35 5 63 -19t28 -61v-842zM756 1483q0 -41 -29 -70t-70 -29t-71 29t-29 70q0 41 30 71q31 30 71 29q40 1 69 -29t29 -71zM510 1483q0 -41 -29 -70t-69 -29t-71 29q-30 29 -30 70t30 71t71 29q42 1 70 -29t28 -71z
" />
    <glyph glyph-name="aring" unicode="&#xe5;" horiz-adv-x="933" 
d="M330 766q154 82 344 76v299q-238 -94 -344 -375zM834 403q32 1 56 -23t24 -56t-24 -57q-24 -24 -56 -23h-160q-35 0 -58 24t-22 56q0 32 24 56t56 23v279q-234 8 -350 -122q-57 -65 -62 -159q34 1 56 -23t22 -56t-24 -57q-24 -24 -56 -23h-160q-32 0 -56 24t-24 57
q0 35 23 57t57 21h2q20 514 312 766q72 61 173 109t156 49q35 5 63 -19t28 -61v-842zM567 1532q-25 0 -42 -18t-17 -42t17 -41t42 -17t42 16q17 18 18 43t-17 42t-43 17zM567 1362q-47 0 -79 32t-31 79q-1 47 31 79t79 31q47 0 79 -32q32 -33 32 -79t-32 -78t-79 -32z" />
    <glyph glyph-name="ae" unicode="&#xe6;" horiz-adv-x="1337" 
d="M330 772q154 82 344 76v299q-238 -94 -344 -375zM1237 1087q-33 0 -57 24t-23 56v7h-323v-220h282q32 0 56 -24t24 -56t-24 -56t-56 -23h-282v-385l317 -2h6v6q0 32 24 56q25 24 57 24t56 -24t23 -56v-86q0 -33 -24 -57t-56 -23h-563q-33 0 -57 24t-23 56q0 32 22 56
t58 24v280q-106 4 -201 -26q-152 -53 -207 -187q-4 -45 -4 -67q34 0 56 -24t22 -56t-24 -57q-24 -24 -56 -23h-160q-32 0 -56 24t-24 56t23 56t59 24q20 514 312 766q147 125 315 155q16 4 25 4h483q33 1 57 -23t23 -57v-86q1 -33 -23 -57t-57 -23z" />
    <glyph glyph-name="ccedilla" unicode="&#xe7;" horiz-adv-x="819" 
d="M20 809q0 203 128 365t354 161h4q121 0 207 -80q86 -79 86 -197t-90 -191t-195 -50q-33 8 -50 36q-17 29 -10 61t34 50q28 17 63 9q35 -7 61 21t27 69q0 41 -38 77t-99 36q-150 0 -236 -110t-86 -254t69 -260t187 -161t275 27q31 14 61 3t45 -41q14 -30 4 -61t-41 -45
q-165 -72 -304 -55q108 -37 125 -96q9 -31 -1 -70q-16 -63 -78 -92q-37 -16 -82 -16t-83 19t-19 54q16 35 53 19q47 -27 98 -4q27 14 33 40t-10 40t-62 29q-46 14 -66 24q-19 10 -40 33q-20 23 -20 41t2 24q-119 59 -200 182q-106 160 -106 363z" />
    <glyph glyph-name="egrave" unicode="&#xe8;" 
d="M666 1325q36 1 58 -23t21 -57v-86q1 -33 -23 -57t-56 -23q-32 0 -57 24q-24 24 -23 62h-326v-219h285q33 0 57 -24t23 -56q0 -32 -24 -56t-56 -24h-285v-385h326q0 41 23 64q24 23 57 23q32 0 56 -24t23 -56v-86q1 -33 -23 -57t-56 -23h-566q-32 0 -56 24t-24 57
q0 35 23 57t57 21v764q-32 0 -56 24q-24 25 -24 57t24 56t56 23h566zM485 1569q13 -27 3 -53t-36 -38q-26 -11 -52 -2t-38 35l-49 105q-12 26 -2 52t36 38q27 12 53 2t36 -35z" />
    <glyph glyph-name="eacute" unicode="&#xe9;" 
d="M666 1325q36 1 58 -23t21 -57v-86q1 -33 -23 -57t-56 -23q-32 0 -57 24q-24 24 -23 62h-326v-219h285q33 0 57 -24t23 -56q0 -32 -24 -56t-56 -24h-285v-385h326q0 41 23 64q24 23 57 23q32 0 56 -24t23 -56v-86q1 -33 -23 -57t-56 -23h-566q-32 0 -56 24t-24 57
q0 35 23 57t57 21v764q-32 0 -56 24q-24 25 -24 57t24 56t56 23h240q-14 0 -25 10q-31 27 -4 58l152 176q25 29 55 4t6 -57l-153 -177q-14 -14 -31 -14h326z" />
    <glyph glyph-name="ecircumflex" unicode="&#xea;" 
d="M666 1325q36 1 58 -23t21 -57v-86q1 -33 -23 -57t-56 -23q-32 0 -57 24q-24 24 -23 62h-326v-219h285q33 0 57 -24t23 -56q0 -32 -24 -56t-56 -24h-285v-385h326q0 41 23 64q24 23 57 23q32 0 56 -24t23 -56v-86q1 -33 -23 -57t-56 -23h-566q-32 0 -56 24t-24 57
q0 35 23 57t57 21v764q-32 0 -56 24q-24 25 -24 57t24 56t56 23h566zM514 1487q14 -18 -2 -35q-18 -14 -33 2l-63 70l-64 -70q-14 -16 -33 -2q-16 16 -2 35l80 88q18 18 37 0z" />
    <glyph glyph-name="edieresis" unicode="&#xeb;" 
d="M666 1325q36 1 58 -23t21 -57v-86q1 -33 -23 -57t-56 -23q-32 0 -57 24q-24 24 -23 62h-326v-219h285q33 0 57 -24t23 -56q0 -32 -24 -56t-56 -24h-285v-385h326q0 41 23 64q24 23 57 23q32 0 56 -24t23 -56v-86q1 -33 -23 -57t-56 -23h-566q-32 0 -56 24t-24 57
q0 35 23 57t57 21v764q-32 0 -56 24q-24 25 -24 57t24 56t56 23h566zM629 1483q0 -41 -29 -70t-70 -29q-40 0 -70 29t-30 70t30 71t70 29q40 1 70 -29q29 -30 29 -71zM383 1483q0 -41 -29 -70q-30 -29 -70 -29t-70 29t-30 70t30 71t71 29q41 1 69 -29t29 -71z" />
    <glyph glyph-name="igrave" unicode="&#xec;" horiz-adv-x="360" 
d="M260 401q32 1 56 -23t24 -56t-24 -57q-24 -24 -56 -23h-160q-32 0 -56 24t-24 57q0 35 23 57t57 21v764q-32 0 -56 24q-24 25 -24 57t23 56t57 23h160q32 1 56 -23t24 -57t-24 -57t-56 -23v-764zM258 1569q12 -27 2 -53t-36 -38q-26 -11 -52 -2t-37 35l-49 105
q-12 26 -2 52t36 38t52 2t37 -35z" />
    <glyph glyph-name="iacute" unicode="&#xed;" horiz-adv-x="360" 
d="M260 401q32 1 56 -23t24 -56t-24 -57q-24 -24 -56 -23h-160q-32 0 -56 24t-24 57q0 35 23 57t57 21v764q-32 0 -56 24q-24 25 -24 57t23 56t57 23h45q-14 0 -24 10q-31 27 -4 58l151 176q25 29 56 4t6 -57l-154 -177q-14 -14 -31 -14h115q32 1 56 -23t24 -57t-24 -57
t-56 -23v-764z" />
    <glyph glyph-name="icircumflex" unicode="&#xee;" horiz-adv-x="360" 
d="M260 401q32 1 56 -23t24 -56t-24 -57q-24 -24 -56 -23h-160q-32 0 -56 24t-24 57q0 35 23 57t57 21v764q-32 0 -56 24q-24 25 -24 57t23 56t57 23h160q32 1 56 -23t24 -57t-24 -57t-56 -23v-764zM285 1487q14 -18 -2 -35q-18 -14 -33 2l-64 70l-63 -70q-14 -16 -33 -2
q-16 16 -2 35l80 88q18 18 37 0z" />
    <glyph glyph-name="idieresis" unicode="&#xef;" horiz-adv-x="485" 
d="M326 401q32 1 56 -23t24 -56t-24 -57q-24 -24 -56 -23h-160q-32 0 -56 24t-24 57q0 35 23 57t57 21v764q-32 0 -56 24q-24 25 -24 57t23 56t57 23h160q32 1 56 -23t24 -57t-24 -57t-56 -23v-764zM465 1483q0 -41 -29 -70q-30 -29 -70 -29t-70 29t-30 70t30 71t71 29
q41 1 69 -29t29 -71zM219 1483q0 -41 -29 -70q-30 -29 -70 -29t-70 29t-30 70t30 71t71 29q41 1 69 -29t29 -71z" />
    <glyph glyph-name="eth" unicode="&#xf0;" horiz-adv-x="892" 
d="M421 403q85 0 161 40t102 116q-4 61 -70 125t-133 82q-135 35 -210 -15q-75 -51 -75 -143t70 -148t155 -57zM430 227q-174 0 -292 110q-118 109 -118 277t132 267q147 115 374 55q51 -10 113 -49q-63 137 -178 213l-195 -121q-22 -14 -48 -8q-26 7 -40 29t-8 48t29 39
l112 70q-31 6 -65 7t-58 27q-24 25 -24 61t26 62q27 26 62 25h2q139 -4 250 -63l110 70q23 14 49 7q25 -7 39 -29t8 -48q-6 -27 -28 -41l-61 -37q252 -224 251 -553q0 -193 -134 -305t-308 -113z" />
    <glyph glyph-name="ntilde" unicode="&#xf1;" horiz-adv-x="1101" 
d="M1001 1327q33 1 57 -23t24 -58t-24 -56q-22 -22 -57 -23v-845q0 -58 -53 -76t-88 26l-600 746v-615q32 1 56 -23t24 -56t-24 -57q-24 -24 -56 -23h-160q-36 0 -58 24t-22 56t24 56t56 23v842q0 55 54 75t88 -26l600 -745v618q-33 0 -57 24q-23 25 -23 57t23 56
q24 24 57 23h159zM676 1415q-55 0 -132 46t-106 46t-45 -16q-16 -15 -16 -35t-11 -30q-12 -10 -26 -11q-14 0 -25 10q-10 10 -10 25q0 53 37 90t90 37t130 -46t109 -46t49 17t17 40q0 35 34 35t34 -44t-37 -81t-92 -37z" />
    <glyph glyph-name="ograve" unicode="&#xf2;" horiz-adv-x="968" 
d="M807 798q0 176 -122 296t-273 77q74 -23 122 -85t48 -150t-62 -155t-153 -58q-33 4 -54 30q-20 27 -17 59t29 52t50 18q47 -3 47 70q0 32 -27 52t-59 16q-106 -16 -146 -108t-19 -220q23 -128 107 -214t207 -91q133 2 228 118q94 117 94 293zM488 1341q196 1 337 -163
t141 -394t-140 -393q-142 -164 -343 -164h-4q-180 8 -307 131t-160 320q-20 125 11 241t116 185q-20 49 15 88q138 149 334 149zM549 1569q12 -27 2 -53t-36 -38q-25 -11 -51 -2t-38 35l-49 105q-12 26 -2 52t36 38q27 12 53 2t36 -35z" />
    <glyph glyph-name="oacute" unicode="&#xf3;" horiz-adv-x="1005" 
d="M825 798q0 176 -122 296t-273 77q74 -23 122 -85t48 -150t-62 -155t-153 -58q-33 4 -53 30q-20 27 -18 59t29 52q26 20 50 18q47 -3 47 70q0 31 -26 52q-27 20 -60 16q-106 -16 -146 -108t-18 -220t106 -214q85 -86 208 -91q133 2 227 118q94 117 94 293zM985 784
q0 -230 -141 -393q-141 -164 -342 -164h-4q-180 8 -308 131q-127 123 -159 320q-20 125 10 241q31 116 117 185q-20 49 14 88q102 109 231 139q-40 27 -10 62l152 176q25 29 55 4t6 -57l-153 -177l49 2q201 1 342 -163t141 -394z" />
    <glyph glyph-name="ocircumflex" unicode="&#xf4;" horiz-adv-x="1005" 
d="M825 798q0 176 -122 296t-273 77q74 -23 122 -85t48 -150t-62 -155t-153 -58q-33 4 -53 30q-20 27 -18 59t29 52q26 20 50 18q47 -3 47 70q0 31 -26 52q-27 20 -60 16q-106 -16 -146 -108t-18 -220t106 -214q85 -86 208 -91q133 2 227 118q94 117 94 293zM508 1341
q196 1 336 -163q141 -164 141 -394t-141 -393q-141 -164 -342 -164h-4q-180 8 -308 131q-127 123 -159 320q-20 125 10 241q31 116 117 185q-20 49 14 88q140 149 336 149zM600 1487q14 -18 -2 -35q-18 -14 -33 2l-63 70l-64 -70q-14 -16 -32 -2q-16 16 -3 35l80 88
q18 18 37 0z" />
    <glyph glyph-name="otilde" unicode="&#xf5;" horiz-adv-x="1005" 
d="M825 798q0 176 -122 296t-273 77q74 -23 122 -85t48 -150t-62 -155t-153 -58q-33 4 -53 30q-20 27 -18 59t29 52q26 20 50 18q47 -3 47 70q0 31 -26 52q-27 20 -60 16q-106 -16 -146 -108t-18 -220t106 -214q85 -86 208 -91q133 2 227 118q94 117 94 293zM508 1341
q196 1 336 -163q141 -164 141 -394t-141 -393q-141 -164 -342 -164h-4q-180 8 -308 131q-127 123 -159 320q-20 125 10 241q31 116 117 185q-20 49 14 88q140 149 336 149zM635 1419q-55 0 -132 46t-106 46t-45 -16q-16 -15 -16 -35q0 -38 -37 -41q-15 1 -25 11t-10 24
q0 53 37 90t90 37t130 -46t109 -46t49 17t17 40q0 35 34 35t34 -44t-37 -81t-92 -37z" />
    <glyph glyph-name="odieresis" unicode="&#xf6;" horiz-adv-x="1005" 
d="M825 798q0 176 -122 296t-273 77q74 -23 122 -85t48 -150t-62 -155t-153 -58q-33 4 -53 30q-20 27 -18 59t29 52q26 20 50 18q47 -3 47 70q0 31 -26 52q-27 20 -60 16q-106 -16 -146 -108t-18 -220t106 -214q85 -86 208 -91q133 2 227 118q94 117 94 293zM508 1341
q196 1 336 -163q141 -164 141 -394t-141 -393q-141 -164 -342 -164h-4q-180 8 -308 131q-127 123 -159 320q-20 125 10 241q31 116 117 185q-20 49 14 88q140 149 336 149zM723 1483q0 -41 -29 -70q-30 -29 -70 -29t-70 29t-30 70t30 71t71 29q41 1 69 -29t29 -71zM477 1483
q-1 -41 -29 -70t-69 -29t-71 29t-29 70q-1 41 29 71t71 29q41 1 69 -29t29 -71z" />
    <glyph glyph-name="divide" unicode="&#xf7;" horiz-adv-x="995" 
d="M623 472q0 -52 -37 -88t-88 -36t-87 36t-36 87t36 88t87 37t88 -36t37 -88zM623 1111q0 -52 -37 -88t-88 -36t-87 36t-36 87t36 88t87 37t88 -36t37 -88zM889 702h-780q-37 0 -63 27t-26 63t26 62t63 25h780q35 0 61 -26q26 -25 25 -61q1 -36 -25 -63t-61 -27z" />
    <glyph glyph-name="oslash" unicode="&#xf8;" horiz-adv-x="993" 
d="M498 403q125 0 212 116t87 280q0 76 -23 149q-80 -96 -236 -252t-210 -223q74 -70 170 -70zM197 799q0 -94 30 -174q72 80 183 190q207 213 270 295q-82 82 -194 82t-201 -116q-88 -116 -88 -277zM973 799q0 -236 -139 -404t-336 -168q-145 0 -267 99q-2 -4 -2 -8t2 -3
q29 -20 36 -56q7 -35 -13 -65t-56 -37t-67 13q-68 47 -76 125t51 176q-86 150 -86 328q0 237 140 403t338 166q145 0 266 -98q0 18 -12 36t-4 53q8 36 38 55t67 11q36 -8 54 -39q72 -112 -14 -272q80 -141 80 -315z" />
    <glyph glyph-name="ugrave" unicode="&#xf9;" horiz-adv-x="1046" 
d="M946 1325q32 1 56 -23t24 -57t-24 -57t-56 -23v-628q0 -119 -117 -219t-276 -99q-276 0 -381 189q-72 123 -72 393v364q-32 0 -56 24q-24 25 -24 57t23 56t57 23h160q32 1 56 -23t24 -57t-24 -57t-56 -23v-364q0 -229 55 -325t238 -97q80 0 155 48t78 110v628
q-32 0 -56 24q-24 25 -24 57t24 56t56 23h160zM590 1569q12 -27 2 -53t-36 -38q-26 -11 -52 -2t-37 35l-49 105q-12 26 -2 52t36 38t52 2t37 -35z" />
    <glyph glyph-name="uacute" unicode="&#xfa;" horiz-adv-x="1046" 
d="M946 1325q32 1 56 -23t24 -57t-24 -57t-56 -23v-628q0 -119 -117 -219t-276 -99q-276 0 -381 189q-72 123 -72 393v364q-32 0 -56 24q-24 25 -24 57t23 56t57 23h160q32 1 56 -23t24 -57t-24 -57t-56 -23v-364q0 -229 55 -325t238 -97q80 0 155 48t78 110v628
q-32 0 -56 24q-24 25 -24 57t24 56t56 23h160zM484 1325q-15 0 -25 10q-31 27 -4 58l151 176q25 29 56 4t6 -57l-154 -177q-15 -14 -30 -14z" />
    <glyph glyph-name="ucircumflex" unicode="&#xfb;" horiz-adv-x="1046" 
d="M946 1325q32 1 56 -23t24 -57t-24 -57t-56 -23v-628q0 -119 -117 -219t-276 -99q-276 0 -381 189q-72 123 -72 393v364q-32 0 -56 24q-24 25 -24 57t23 56t57 23h160q32 1 56 -23t24 -57t-24 -57t-56 -23v-364q0 -229 55 -325t238 -97q80 0 155 48t78 110v628
q-32 0 -56 24q-24 25 -24 57t24 56t56 23h160zM621 1487q14 -18 -3 -35q-18 -14 -32 2l-64 70l-63 -70q-14 -16 -33 -2q-16 16 -2 35l80 88q18 18 37 0z" />
    <glyph glyph-name="udieresis" unicode="&#xfc;" horiz-adv-x="1046" 
d="M946 1325q32 1 56 -23t24 -57t-24 -57t-56 -23v-628q0 -119 -117 -219t-276 -99q-276 0 -381 189q-72 123 -72 393v364q-32 0 -56 24q-24 25 -24 57t23 56t57 23h160q32 1 56 -23t24 -57t-24 -57t-56 -23v-364q0 -229 55 -325t238 -97q80 0 155 48t78 110v628
q-32 0 -56 24q-24 25 -24 57t24 56t56 23h160zM764 1483q0 -41 -29 -70t-69 -29t-71 29q-30 29 -30 70t30 71t71 29q42 1 70 -29t28 -71zM518 1483q0 -41 -29 -70t-69 -29t-71 29q-30 29 -30 70t30 71t71 29q42 1 70 -29t28 -71z" />
    <glyph glyph-name="yacute" unicode="&#xfd;" horiz-adv-x="1040" 
d="M940 1325q32 1 56 -23t24 -57t-24 -57t-56 -23h-41l-332 -432v-332q33 1 57 -23t24 -56t-24 -57q-24 -24 -57 -23h-159q-33 0 -57 24q-23 24 -23 57q0 35 22 57t58 21v336l-273 428h-35q-32 0 -56 24q-24 25 -24 57t23 56t57 23h160q32 1 56 -23t24 -59t-27 -57l181 -285
l225 293q-19 24 -19 54t23 54t57 23h160zM470 1325q-15 0 -26 10q-31 27 -4 58l152 176q26 29 56 4t5 -57l-153 -177q-15 -14 -30 -14z" />
    <glyph glyph-name="thorn" unicode="&#xfe;" horiz-adv-x="868" 
d="M672 759q0 163 -86 222q-117 80 -389 -16v-412q475 -172 475 206zM848 760q0 -254 -164 -369q-178 -118 -487 -22v-277q0 -36 -26 -62q-27 -26 -63 -26t-62 26t-26 62v1399q0 35 26 61t63 27q37 0 63 -27t25 -61v-342q317 96 489 -25q162 -110 162 -364z" />
    <glyph glyph-name="ydieresis" unicode="&#xff;" horiz-adv-x="1040" 
d="M737 1483q-1 -41 -29 -70t-69 -29t-71 29t-29 70q-1 41 29 71t71 29q41 1 69 -29t29 -71zM492 1483q0 -41 -29 -70t-70 -29t-71 29t-29 70q0 41 30 71q31 30 71 29q40 1 69 -29t29 -71zM940 1325q32 1 56 -23t24 -57t-24 -57t-56 -23h-41l-332 -432v-332q33 1 57 -23
t24 -56t-24 -57q-24 -24 -57 -23h-159q-33 0 -57 24q-23 24 -23 57q0 35 22 57t58 21v336l-273 428h-35q-32 0 -56 24q-24 25 -24 57t23 56t57 23h160q32 1 56 -23t24 -59t-27 -57l181 -285l225 293q-19 24 -19 54t23 54t57 23h160z" />
    <glyph glyph-name="Lslash" unicode="&#x141;" horiz-adv-x="1157" 
d="M1426 -537q-126 0 -216 25t-177 79t-135 91t-142 119t-148 123q-54 40 -142 72q-87 32 -169 16q-35 -6 -66 16t-37 56t15 64q20 30 57 38q61 8 88 8v532l-164 -163q-26 -27 -62 -27t-62 27t-27 63q0 36 27 62l288 286v457h-73q-35 0 -60 -26q-25 -27 -25 -63t-26 -61
t-62 -25t-62 26t-26 61v2q0 109 76 185t185 77h239q37 1 63 -25q25 -26 25 -62t-22 -60t-58 -29v-281l164 164q25 25 62 25q36 0 62 -26q26 -25 26 -61t-27 -63l-287 -286v-740q115 -43 235 -138q38 -29 127 -107t148 -123q60 -45 160 -88t208 -43t188 26t115 63
q73 77 61 161q-5 36 -19 61q-31 57 -93 53t-81 -53q-7 -14 11 -37q18 -24 15 -60t-31 -59t-65 -19t-59 31q-84 100 -33 216q29 65 95 109t145 46q160 11 242 -130t30 -292q-27 -78 -85 -144t-174 -107q-116 -42 -242 -42z" />
    <glyph glyph-name="lslash" unicode="&#x142;" horiz-adv-x="860" 
d="M680 410q0 38 24 62t57 24q31 0 55 -24t24 -56v-86q0 -35 -23 -58t-57 -22h-533q-33 0 -57 24t-23 56q0 32 24 56t56 24v178l-57 -58q-26 -26 -62 -26t-62 26t-26 61q0 36 27 62l180 183v338q-33 0 -57 24t-23 56q0 32 24 56t56 23h160q33 1 57 -23t23 -57q0 -33 -23 -57
t-57 -22v-179l57 58q27 27 63 27q37 0 63 -28q26 -26 26 -62t-27 -62l-182 -180v-338h293z" />
    <glyph glyph-name="OE" unicode="&#x152;" horiz-adv-x="1882" 
d="M729 1460q-137 0 -261 -84t-130 -215t107 -210q114 -78 235 -27q160 68 307 96v356q-121 84 -258 84zM1862 1317q0 -35 -26 -61t-61 -27q-36 1 -63 27t-26 61v88h-523v-373q199 -2 424 -104q33 -14 46 -49t-2 -68t-50 -46t-68 3q-186 86 -350 88v-680h523v88q0 35 26 62
q27 26 63 26q35 0 61 -26t26 -62v-176q0 -36 -26 -62t-62 -26h-699q-31 0 -55 20q-137 -74 -291 -73q-215 0 -389 137q-174 136 -260 366t-49 484q4 36 34 58q29 22 65 17t58 -35t17 -65q-29 -201 35 -384t195 -293t281 -110t271 85v633q-109 -20 -225 -72t-224 -35
q-231 38 -330 229q-52 99 -46 212q10 176 139 292q193 170 428 170q150 0 291 -73l8 8q2 8 36 9t282 1h428q36 0 62 -27t26 -61v-176z" />
    <glyph glyph-name="oe" unicode="&#x153;" horiz-adv-x="1167" 
d="M180 789q0 -162 94 -279t228 -117v781q-134 -2 -228 -112t-94 -273zM1147 1167q1 -33 -23 -57t-58 -23q-34 0 -56 24t-23 56v7h-325v-220h282q32 0 56 -24t24 -57q0 -35 -23 -57t-57 -21h-282v-387h325v6q0 32 23 56q22 24 56 24t58 -24t23 -56v-86q0 -33 -24 -57
t-56 -23h-459q-43 -10 -102 -15h-2q-201 0 -342 164q-142 165 -142 393t140 385t342 158h565q33 1 57 -23t23 -57v-86z" />
    <glyph glyph-name="Scaron" unicode="&#x160;" horiz-adv-x="1095" 
d="M694 1810l-80 -88q-18 -18 -36 0l-80 88q-14 18 2 35q18 14 32 -2l64 -69l63 69q14 16 33 2q16 -17 2 -35zM1075 444q0 -213 -160 -348t-349 -135t-321 76q-131 76 -185 201q-54 126 -31 246t117 216t236 102t232 -81q90 -86 92 -179t-56 -166t-143 -88t-177 36
q-31 20 -38 56t13 66t55 38q35 7 66 -13q49 -31 90 16q35 45 -12 95t-119 45q-101 -7 -157 -105t-15 -194t130 -143q89 -48 216 -48t234 86q106 86 106 221q0 76 -45 150t-112 129q-156 128 -284 254q-65 63 -106 153t-35 189q9 172 157 248t288 22q4 31 29 53t59 21
q34 0 60 -26t26 -62v-207q0 -53 -44 -77t-88 1t-44 88q-8 16 -39 34t-78 20q-47 4 -97 -28t-54 -100q-4 -69 38 -138q42 -68 106 -122q66 -54 142 -121t143 -130t111 -155t43 -196z" />
    <glyph glyph-name="scaron" unicode="&#x161;" horiz-adv-x="878" 
d="M453 1403q-18 0 -31 14l-152 176q-27 31 3 58t57 -4l123 -144l122 144q27 31 57 4t3 -58l-152 -176q-12 -14 -30 -14zM858 571q0 -164 -120 -258t-324 -94q-146 1 -270 103t-124 249q0 93 54 151t126 72q71 14 126 -13q55 -26 70 -68q15 -43 2 -73t-43 -40q-31 -10 -59 1
t-42 38q-20 4 -47 -11t-27 -57q0 -76 76 -134t178 -58t182 45q82 45 82 147q0 66 -54 108t-152 87t-135 64q-36 18 -88 58q-99 75 -99 192q0 116 72 185t186 68q74 0 139 -35q4 30 27 48q24 18 54 18t54 -24t23 -56v-246q0 -32 -24 -56q-25 -24 -57 -24t-56 24t-23 56v47
q-53 89 -144 89t-91 -89q0 -45 46 -79t138 -74q92 -41 134 -65q140 -80 182 -167q28 -57 28 -129z" />
    <glyph glyph-name="Ydieresis" unicode="&#x178;" horiz-adv-x="1304" 
d="M913 1808q-1 -42 -29 -70t-69 -28t-71 29t-30 69t30 71q30 30 71 30t69 -30t29 -71zM668 1808q0 -42 -29 -70t-70 -28t-71 29t-29 69q0 40 30 71q31 30 71 30t69 -30t29 -71zM1217 1581q37 0 63 -26q26 -27 25 -63q0 -36 -26 -62t-62 -25h-33l-430 -1292
q-70 -215 -154 -329t-258 -171q-110 -39 -220 -12t-180 107t-81 178q-12 97 33 188q76 150 229 153q70 3 132 -33t95 -96q63 -117 -14 -237q-20 -31 -56 -38t-67 13t-38 55t13 66q33 49 -12 82q-47 33 -94 -4q-18 -16 -31 -39q-47 -94 21 -168q84 -96 213 -49h2
q97 31 132 69q36 38 62 66t63 134q37 107 44 122l92 279l-399 958q-53 0 -79 -25q-26 -26 -26 -62t-26 -62t-62 -26t-62 26t-26 61q0 109 77 187t185 77h156q36 1 62 -25t26 -69t-41 -70l301 -717l233 707q-63 18 -63 84q0 37 26 63t62 25h193z" />
    <glyph glyph-name="Zcaron" unicode="&#x17d;" horiz-adv-x="1007" 
d="M504 1706q-18 0 -31 14l-151 176q-27 31 3 58t56 -4l123 -144l123 144q26 31 56 4t3 -58l-151 -176q-13 -14 -31 -14zM932 -457q-148 1 -278 53t-220 124t-174 140q-195 160 -377 128q-63 -10 -94 46t8 107l965 1266h-498q-34 0 -60 -26q-26 -25 -26 -61t-26 -62t-63 -26
q-35 0 -61 26t-26 63q0 109 77 185t185 77h674q55 0 80 -50t-10 -93l-973 -1276q163 -24 353 -181q75 -63 153 -123q182 -142 387 -141q301 0 361 171q26 78 -9 141q-20 37 -62 48t-70 -6q-59 -35 -36 -75q23 -27 20 -64q-3 -38 -31 -60t-65 -18t-59 31q-59 73 -41 175
t115 159q100 57 212 27t169 -129q76 -132 24 -283q-27 -78 -85 -144t-174 -107q-116 -42 -265 -42z" />
    <glyph glyph-name="zcaron" unicode="&#x17e;" horiz-adv-x="923" 
d="M472 1403q-18 0 -32 14l-151 176q-27 31 3 58t56 -4l123 -144l123 144q26 31 56 4t3 -58l-151 -176q-12 -14 -30 -14zM823 242h-723q-48 0 -70 45t7 84l598 794h-408q1 -33 -23 -57t-57 -23q-33 0 -57 24t-22 56v80q0 33 23 57q24 24 56 23h648q49 0 71 -44t-8 -83
l-598 -797h483q0 33 24 56q25 23 57 23t56 -24t23 -57v-77q0 -33 -23 -57q-24 -23 -57 -23z" />
    <glyph glyph-name="circumflex" unicode="&#x2c6;" horiz-adv-x="249" 
d="M223 1487q14 -18 -2 -35q-18 -14 -33 2l-63 70l-64 -70q-14 -16 -32 -2q-16 16 -2 35l79 88q18 18 37 0z" />
    <glyph glyph-name="caron" unicode="&#x2c7;" horiz-adv-x="425" 
d="M214 1323q-18 0 -32 14l-151 176q-27 31 3 58t56 -4l123 -144l123 144q26 31 56 4t3 -58l-151 -176q-12 -14 -30 -14z" />
    <glyph glyph-name="breve" unicode="&#x2d8;" horiz-adv-x="319" 
d="M160 1405q-57 0 -99 41q-41 41 -41 98q0 16 12 28t28 11q16 0 28 -11t12 -32t18 -38t42 -17q25 0 42 17q17 18 17 38t12 32q11 12 27 11q16 0 28 -11t13 -28q0 -57 -41 -98t-98 -41z" />
    <glyph glyph-name="dotaccent" unicode="&#x2d9;" horiz-adv-x="239" 
d="M219 1483q0 -41 -29 -70q-30 -29 -70 -29t-70 29t-30 70t30 71t71 29q41 1 69 -29t29 -71z" />
    <glyph glyph-name="ring" unicode="&#x2da;" horiz-adv-x="319" 
d="M160 1503q-25 0 -42 -17q-18 -17 -18 -42t18 -42q18 -18 42 -18q25 0 42 18t17 42q0 25 -17 42t-42 17zM160 1305q-57 0 -99 41q-41 41 -41 98t41 98t99 41t98 -41q41 -41 41 -99t-41 -98t-98 -40z" />
    <glyph glyph-name="ogonek" unicode="&#x2db;" horiz-adv-x="325" 
d="M39 82q-33 66 -9 138t89 104q39 18 53 -19q16 -35 -16 -53q-36 -18 -50 -57t4 -76t59 -50q40 -13 76 5t54 -18t-18 -54q-67 -34 -137 -10t-105 90z" />
    <glyph glyph-name="tilde" unicode="&#x2dc;" horiz-adv-x="540" 
d="M391 1552q-55 0 -132 46t-106 46t-45 -16t-16 -36q-1 -38 -37 -40q-14 0 -24 10t-11 25q0 53 37 90t90 37t131 -46t108 -46q32 0 49 17t18 40q-1 35 33 35t34 -44t-37 -81t-92 -37z" />
    <glyph glyph-name="hungarumlaut" unicode="&#x2dd;" horiz-adv-x="473" 
d="M395 1393q-11 -27 -37 -36t-52 2t-36 38t2 53l50 104q12 25 38 34t52 -1q24 -12 34 -39t-2 -51zM114 1357q-26 -9 -52 2t-35 38q-10 27 2 53l49 104q10 25 37 35t53 -2t35 -39q10 -27 -2 -51l-49 -104q-12 -27 -38 -36z" />
    <glyph glyph-name="endash" unicode="&#x2013;" horiz-adv-x="858" 
d="M750 702h-641q-37 0 -63 27t-26 63t26 62t63 25h641q36 0 62 -26q26 -25 26 -61t-26 -63t-62 -27z" />
    <glyph glyph-name="emdash" unicode="&#x2014;" horiz-adv-x="1103" 
d="M995 702h-886q-37 0 -63 27t-26 63t26 62t63 25h886q37 0 63 -26q26 -25 26 -61t-26 -63t-63 -27z" />
    <glyph glyph-name="quoteleft" unicode="&#x2018;" horiz-adv-x="229" 
d="M114 1209q-26 -9 -52 2t-36 38t3 54l49 104q10 25 37 35t53 -2t35 -39q10 -27 -2 -51l-49 -105q-12 -27 -38 -36z" />
    <glyph glyph-name="quoteright" unicode="&#x2019;" horiz-adv-x="229" 
d="M203 1249q-10 -27 -36 -38q-25 -11 -51 -2t-38 36l-49 105q-12 26 -2 52t34 38q27 12 54 2t37 -35l49 -104q12 -27 2 -54z" />
    <glyph glyph-name="quotesinglbase" unicode="&#x201a;" horiz-adv-x="229" 
d="M114 127q-26 -10 -52 2t-35 39q-10 27 2 51l49 105q10 28 37 36t53 -4t35 -38q10 -26 -2 -52l-49 -104q-12 -25 -38 -35z" />
    <glyph glyph-name="quotedblleft" unicode="&#x201c;" horiz-adv-x="473" 
d="M395 1245q-11 -27 -37 -36t-52 2t-36 38t2 54l50 104q12 25 38 34t52 -1q24 -12 34 -39t-2 -51zM114 1209q-26 -9 -52 2t-36 38t3 54l49 104q10 25 37 35t53 -2t35 -39q10 -27 -2 -51l-49 -105q-12 -27 -38 -36z" />
    <glyph glyph-name="quotedblright" unicode="&#x201d;" horiz-adv-x="473" 
d="M203 1249q-10 -27 -36 -38q-27 -11 -53 -2t-36 36l-49 105q-12 26 -2 52t34 38q27 10 53 1t38 -34l49 -104q12 -27 2 -54zM444 1303q12 -27 2 -54t-35 -38q-26 -11 -52 -2t-37 36l-50 105q-12 26 -2 52t36 38t52 2t37 -35z" />
    <glyph glyph-name="quotedblbase" unicode="&#x201e;" horiz-adv-x="440" 
d="M362 162q-12 -25 -38 -35t-51 2q-26 12 -35 39q-10 27 2 51l49 105q10 28 37 36q26 8 52 -4t36 -38t-2 -52zM114 127q-26 -10 -52 2t-35 39q-10 27 2 51l49 105q10 28 37 36t53 -4t35 -38q10 -26 -2 -52l-49 -104q-12 -25 -38 -35z" />
    <glyph glyph-name="dagger" unicode="&#x2020;" horiz-adv-x="897" 
d="M788 1198q37 0 63 -26t26 -62t-26 -62t-63 -26h-251v-932q0 -36 -26 -62q-27 -26 -63 -26t-62 27t-26 61v932h-251q-37 0 -63 27t-26 63t26 60q26 26 63 26h251v293q0 37 26 63t63 25q37 0 63 -26t25 -62v-293h251z" />
    <glyph glyph-name="daggerdbl" unicode="&#x2021;" horiz-adv-x="897" 
d="M788 485q37 1 63 -25t26 -63t-26 -63t-63 -25h-251v-219q0 -36 -26 -62q-27 -26 -63 -26t-62 27t-26 61v219h-251q-37 0 -63 26q-26 27 -26 63t26 62t63 25h251v537h-251q-37 0 -63 27t-26 63t26 60q26 26 63 26h251v293q0 37 26 63t63 25q37 0 63 -26t25 -62v-293h251
q37 0 63 -26t26 -62t-26 -62t-63 -26h-251v-537h251z" />
    <glyph glyph-name="bullet" unicode="&#x2022;" horiz-adv-x="323" 
d="M303 791q0 -57 -41 -99t-100 -41q-59 0 -101 41q-41 40 -41 98t41 100t101 42t100 -42q41 -42 41 -99z" />
    <glyph glyph-name="ellipsis" unicode="&#x2026;" horiz-adv-x="909" 
d="M889 367q0 -51 -37 -87t-88 -36t-87 36t-36 87t36 87t87 36t88 -36t37 -87zM582 367q0 -51 -37 -87t-88 -36t-87 36t-36 87t36 87t87 36t88 -36t37 -87zM268 367q0 -51 -37 -87t-88 -36t-87 36t-36 87t36 87t87 36t88 -36t37 -87z" />
    <glyph glyph-name="perthousand" unicode="&#x2030;" horiz-adv-x="2084" 
d="M1759 174q53 0 91 53t38 126t-39 127t-90 54t-90 -54t-39 -127t38 -126t91 -53zM1759 709q125 -1 215 -105t90 -250t-89 -252q-89 -104 -216 -104t-216 104t-89 250t90 252q90 105 215 105zM1108 174q53 0 91 53t38 126t-39 127t-90 54t-90 -54t-39 -127t38 -126t91 -53z
M1108 709q125 -1 215 -105t90 -250t-89 -252q-89 -104 -216 -104t-216 104t-89 250t90 252q90 105 215 105zM326 1049q53 0 92 53t39 127t-39 127t-92 53q-54 0 -92 -53t-38 -127t39 -127q38 -53 91 -53zM631 1229q0 -147 -89 -251t-216 -106q-127 0 -216 104
q-90 104 -90 252t90 252t216 105q127 -1 216 -105t89 -251zM1004 1520q14 33 48 46t68 -2q33 -15 45 -48t-2 -68l-624 -1399q-15 -33 -49 -45t-68 2t-46 48q-13 34 1 67z" />
    <glyph glyph-name="guilsinglleft" unicode="&#x2039;" horiz-adv-x="600" 
d="M20 785q0 28 23 46l434 377q47 37 86 -9t-6 -85l-381 -328l381 -329q19 -14 21 -40t-16 -46q-18 -21 -43 -21q-26 0 -42 15l-434 374q-23 18 -23 46z" />
    <glyph glyph-name="guilsinglright" unicode="&#x203a;" horiz-adv-x="600" 
d="M43 457l381 329l-381 328q-45 39 -6 85t86 9l434 -377q21 -18 21 -46t-21 -46l-434 -374q-16 -15 -42 -15t-43 20t-16 47q1 26 21 40z" />
    <glyph glyph-name="fraction" unicode="&#x2044;" horiz-adv-x="796" 
d="M72 66q-33 14 -45 48t2 66l577 1293q16 35 49 47t67 -2t47 -50t-1 -67l-580 -1292q-16 -33 -48 -45t-68 2z" />
    <glyph glyph-name="Euro" unicode="&#x20ac;" horiz-adv-x="1355" 
d="M104 510q-36 0 -60 25t-24 59t25 60q25 24 59 24h105q-18 117 -8 242h-97q-36 0 -60 24t-24 60t25 60t59 23h123q43 156 129 275q193 252 518 252h7q180 0 303 -127q26 -25 26 -60t-26 -59t-60 -25q-35 0 -59 25q-80 80 -188 76h-3q-180 0 -299 -98t-172 -259h363
q36 -1 60 -25t24 -58t-25 -60q-25 -25 -59 -24h-397q-10 -121 12 -242h385q36 0 60 -25t24 -59t-25 -60q-25 -24 -59 -24h-334q84 -199 240 -299q240 -147 540 -2q33 14 65 3t47 -43t4 -65t-42 -49q-389 -184 -704 15q-233 147 -332 440h-146z" />
    <glyph glyph-name="trademark" unicode="&#x2122;" horiz-adv-x="968" 
d="M358 1253h-108v-344q14 0 25 -11q11 -12 11 -28t-12 -27t-28 -12h-72q-16 -1 -28 11t-13 28q0 16 11 28t26 11v344h-111q-16 -1 -27 11t-12 28q0 16 12 28t27 13h299q16 0 28 -12q12 -13 13 -29q-1 -16 -13 -28t-28 -11zM948 870q0 -16 -12 -27t-29 -12h-71
q-16 -1 -28 11t-13 28q0 37 36 41v277l-137 -154q-10 -14 -28 -14t-31 14l-137 154v-279q14 0 25 -11q11 -12 11 -28t-10 -27q-12 -11 -28 -12h-74q-39 0 -39 39q0 16 10 28t25 11v383q0 27 26 37q27 10 45 -10l177 -199l176 199q18 20 44 10t25 -37v-383q37 -4 37 -39z" />
    <glyph glyph-name="minus" unicode="&#x2212;" horiz-adv-x="858" 
d="M750 702h-641q-37 0 -63 27t-26 63t26 62t63 25h641q36 0 62 -26q26 -25 26 -61t-26 -63t-62 -27z" />
    <glyph glyph-name="fi" unicode="&#xfb01;" horiz-adv-x="884" 
d="M784 410q33 0 57 -24q23 -24 23 -58t-22 -56q-22 -23 -58 -22h-159q-33 0 -57 24t-23 56q-1 32 23 56t57 24v387q-33 -1 -57 23t-23 57q-1 33 23 57t57 22h159q33 0 57 -24q23 -24 23 -56t-22 -56t-58 -23v-387zM416 954q32 0 56 -24t24 -56t-24 -56t-56 -23h-156v-385
q32 0 56 -24t24 -56t-24 -57q-24 -24 -56 -23h-160q-36 0 -58 22t-22 57q0 33 24 57t56 24v764q-32 0 -56 24t-24 56t23 56t57 23h605q33 1 57 -23t22 -57v-86q0 -33 -24 -57t-56 -23q-32 0 -56 24t-23 56v7h-365v-220h156z" />
    <glyph glyph-name="fl" unicode="&#xfb02;" horiz-adv-x="1257" 
d="M455 954q33 0 57 -22t23 -57q0 -33 -24 -57t-56 -23h-195v-385q32 0 56 -24t24 -56t-24 -57q-24 -24 -56 -23h-160q-36 0 -58 22t-22 57q0 33 24 57t56 24v764q-32 0 -56 24t-24 56t23 56t57 23h684q35 1 58 -23q22 -24 22 -57t-24 -57t-56 -22h-524v-220h195zM1157 496
q33 0 57 -24t23 -56v-86q0 -35 -23 -58t-57 -22h-532q-33 0 -57 24t-23 56q-1 32 23 56t57 24v624q0 33 23 57q24 23 57 23t57 -24t22 -56v-624h293v6q-1 32 23 56t57 24z" />
    <glyph glyph-name="G.alt1" horiz-adv-x="1273" 
d="M1251 300q0 -116 -3 -156t-6 -84q-7 -104 -42 -193q-86 -231 -344 -299q-150 -43 -283 35q-33 18 -42 53t9 67q18 33 54 41q35 8 68 -8q72 -43 162 -16t148 85t83 169q-360 -137 -656 47q-184 115 -291 331q-108 216 -108 472q0 317 166 540q199 262 539 263l264 -109
q90 -90 90 -219t-84 -213t-195 -84q-78 0 -139 39t-90 94t-30 99t24 72q25 26 61 27t63 -24q25 -25 27 -67t54 -58q52 -18 94 21q41 39 41 95t-50 103t-126 47q-227 0 -380 -164t-153 -462q0 -207 87 -386t234 -272t294 -74q147 18 214 49q68 31 70 32v311q-2 61 -28 96
q-27 35 -62 38t-57 33q-22 29 -19 65q4 36 33 59t66 18q102 -14 168 -94t75 -201v-218z" />
    <glyph glyph-name="J.alt1" horiz-adv-x="1146" 
d="M0 169q0 136 96 232q72 72 167 83t173 -42t99 -153q25 -137 -86 -230q-29 -23 -66 -17t-59 33q-22 29 -18 65q5 36 35 61q29 25 19 59t-41 45q-57 14 -100 -30t-43 -106q0 -63 53 -117t146 -54h2q176 0 302 117t126 360v971q-156 72 -307 53h-4q-102 -10 -123 -78
q-10 -35 9 -63t52 -27q33 3 60 -23q26 -26 28 -62t-22 -62t-62 -29q-86 -4 -148 48t-85 124q-23 71 2 149t96 133q72 54 174 64h2q221 29 457 -94q96 -45 138 -40t68 29t62 22t60 -30q26 -28 24 -64t-29 -60q-113 -100 -276 -62v-905q-4 -372 -265 -551q-140 -96 -339 -96
q-162 -4 -281 115q-96 96 -96 232z" />
    <glyph glyph-name="a.last" horiz-adv-x="913" 
d="M584 766q-106 281 -344 375v-299q190 6 344 -76zM80 403v842q0 37 28 61t62 19q54 0 156 -48q459 -216 485 -876h2q35 -1 57 -23t23 -56q0 -34 -24 -57q-24 -24 -56 -23h-160q-33 0 -57 24t-23 56q0 32 23 56t55 23q-4 94 -61 159q-114 130 -350 122v-279q32 1 56 -23
t24 -56t-24 -57q-22 -24 -56 -23h-160q-32 0 -56 24t-24 56q0 33 24 56t56 23z" />
    <glyph glyph-name="a.alt1" horiz-adv-x="913" 
d="M422 967q135 -12 231 -97v271q-133 -49 -231 -174zM813 1245v-842q33 1 57 -23t23 -56q0 -32 -24 -57q-24 -24 -56 -23h-160q-35 0 -57 24t-23 56q0 32 24 56t56 23l-2 74q0 180 -98 268q-80 74 -217 64h-2q-2 0 -6 -2q-43 -96 -68 -225q10 0 14 4q33 8 62 -7t38 -47
t-6 -62q-26 -48 -126 -48v-21q34 1 56 -23t22 -56t-24 -57q-24 -24 -56 -23h-160q-32 0 -56 24t-24 57q0 35 23 57t57 21h2l6 97q-66 76 -62 179q3 103 64 171t125 94q123 225 333 326q121 57 175 57q35 5 63 -19t27 -61z" />
    <glyph glyph-name="e.alt1" 
d="M745 1245v-86q1 -33 -23 -57t-56 -23q-32 0 -57 24q-24 24 -23 56v6h-326v-331q119 80 283 79q33 1 57 -23t23 -58q0 -34 -23 -56q-23 -23 -57 -22q-145 0 -224 -78q-55 -55 -59 -150v-125h326v7q0 36 22 58t57 22q33 0 57 -24t23 -56v-86q1 -33 -23 -57t-56 -23h-566
q-32 0 -56 24t-24 57q0 35 23 57t57 21v764q-32 0 -56 24q-24 25 -24 57t23 56t57 23h566q33 1 56 -23t23 -57z" />
    <glyph glyph-name="f.alt1" 
d="M666 1325q36 1 58 -23t21 -57v-86q1 -33 -23 -57t-56 -23q-32 0 -57 24q-24 24 -23 56v6h-326v-260q121 80 285 80q33 1 57 -23t23 -57q0 -33 -24 -57t-56 -23q-145 0 -223 -77q-61 -59 -62 -162v-185q32 1 56 -23t24 -56t-24 -57q-24 -24 -56 -23h-160q-32 0 -56 24
t-24 57q0 35 23 57t57 21v764q-32 0 -56 24q-24 25 -24 57t24 56t56 23h566z" />
    <glyph glyph-name="g.alt1" horiz-adv-x="874" 
d="M774 756q32 0 56 -24t24 -56v-531q0 -121 -56 -205q-105 -157 -298 -122q-84 14 -138 73t-53 141q2 82 60 136q23 20 57 19t55 -23q19 -25 19 -59t-20 -53t-3 -48q18 -29 50 -31q68 -4 91 12q23 17 36 29t25 46q15 46 15 100v69q-225 -59 -420 62q-127 80 -200 216
q-74 136 -74 290q0 205 141 369t365 165q84 0 153 -31q18 57 76 58q33 0 57 -24t23 -56v-209q-1 -33 -23 -57t-56 -23q-34 0 -58 24t-23 56v33q-18 35 -62 52t-85 17h-2q-152 1 -249 -115t-97 -255t74 -252t194 -157q119 -44 266 3v201h-45q-33 0 -57 24t-23 56q0 32 24 56
t56 24h125z" />
    <glyph glyph-name="h.alt1" horiz-adv-x="989" 
d="M889 401q33 1 57 -23t23 -58q0 -34 -24 -56q-24 -23 -56 -22h-160q-33 0 -57 24t-23 56q0 32 24 56t56 23v205q-51 20 -106 47q-145 63 -227 85t-136 -3v-334q36 -3 58 -25t22 -54t-24 -57q-24 -24 -56 -23h-160q-36 0 -58 22t-22 57q0 33 24 57t56 23v764q-32 0 -56 24
q-24 25 -24 57t24 56t56 23h160q36 1 58 -23t22 -57t-24 -57t-56 -23v-264q64 12 146 -3t135 -37t145 -62l43 -19v385q-33 0 -57 24q-24 25 -23 57q0 32 24 56t56 23h160q33 1 57 -23t23 -57q0 -33 -24 -57t-56 -23v-446q115 -31 176 -2q31 14 61 2t45 -42t3 -61t-41 -45
q-104 -48 -244 -16v-154z" />
    <glyph glyph-name="j.alt1" horiz-adv-x="718" 
d="M110 135q-57 0 -70 -36q-13 -35 36 -71q50 -36 156 -36t159 65q-224 78 -281 78zM459 1165h-164q-33 0 -57 24q-24 25 -23 57q0 32 24 56t56 23h323q33 1 57 -23q23 -24 23 -57t-24 -57t-56 -23v-747q0 -160 -18 -254q309 -68 643 45q33 10 63 -4t40 -46t-4 -62t-48 -40
q-379 -129 -745 -47q-94 -178 -311 -178q-166 0 -264 72t-97 170q0 98 66 159q65 61 163 61t340 -87q12 90 13 211v747z" />
    <glyph glyph-name="k.alt1" horiz-adv-x="1058" 
d="M260 401q32 1 56 -23t24 -56t-24 -57q-24 -24 -56 -23h-160q-36 0 -58 22t-22 57q0 33 24 57t56 23v764q-32 0 -56 24q-24 25 -24 57t23 56t57 23h160q32 1 56 -23t24 -57t-24 -57t-56 -23v-303l420 436q24 25 56 26t57 -21q23 -23 23 -57t-21 -58l-269 -279
q123 -68 200 -264q17 -43 49 -129t52 -133q19 -47 63 -117t95 -110q121 -86 299 -82t270 71q29 19 61 15t52 -31t15 -59t-31 -54q-139 -100 -375 -101t-391 116q-66 53 -121 137t-80 141q-26 57 -74 191t-90 204q-42 68 -112 80l-148 -153v-230z" />
    <glyph glyph-name="l.alt1" horiz-adv-x="733" 
d="M262 1325q32 1 56 -23t24 -57t-24 -57t-56 -23h-2v-762q162 -12 465 -149q111 -49 168 -74q57 -26 163 -56q295 -85 564 54q20 15 50 15t54 -24q24 -25 23 -65q0 -40 -43 -63q-207 -109 -424 -109q-108 0 -228 30t-207 65t-202 86t-178 77t-160 46q-96 19 -159 7
q-112 -22 -123 54q-8 33 11 63t66 35v770q-34 2 -56 25q-22 24 -22 56t24 56t56 23h160z" />
    <glyph glyph-name="m.alt1" horiz-adv-x="1265" 
d="M1612 -141q-232 -1 -419 161t-187 414v602l-314 -352q-24 -27 -60 -27t-59 27l-313 352v-633q32 1 56 -23t24 -56t-24 -57q-24 -24 -56 -23h-160q-36 0 -58 24t-22 56t24 56t56 23v842q0 55 52 75t88 -22l393 -440l393 440q37 43 88 23t51 -76v-811q-1 -184 141 -300
t312 -116t293 105q27 19 58 17t54 -28t20 -59t-30 -53q-169 -141 -401 -141z" />
    <glyph glyph-name="n.alt1" horiz-adv-x="1101" 
d="M260 401q32 1 56 -23t24 -56t-24 -57q-24 -24 -56 -23h-160q-32 0 -56 24t-24 57q0 35 23 57t57 21v844q0 57 54 75t88 -24l598 -743q-19 419 41 608q80 250 372 422q29 16 61 9t48 -36q16 -30 8 -62t-37 -48q-129 -76 -201 -157t-100 -179q-29 -98 -34 -227t1 -303
l2 -258q0 -54 -53 -74t-88 24l-600 746v-617z" />
    <glyph glyph-name="q.alt1" horiz-adv-x="923" 
d="M764 784q0 164 -89 281t-214 117q-35 0 -58 24t-22 56q-1 32 23 56t57 23q193 -1 327 -163t136 -394q0 -174 -81 -315t-212 -203q70 -10 110 6q41 16 71 3t42 -44t-1 -61t-44 -43q-88 -37 -188 -21t-172 54q-206 107 -263 104q-57 -2 -80 48t17 89q-90 117 -115 277
q-35 221 72 371q72 97 188 123t215 -52q63 -57 73 -149t-40 -166q-61 -92 -168 -82q-33 4 -53 30q-20 27 -16 59t28 52q25 20 47 18t33 18q12 20 10 52q-3 32 -25 52t-53 16q-100 -16 -136 -110t-17 -205q20 -141 101 -227t196 -91q125 2 213 118q88 115 88 279z" />
    <glyph glyph-name="s.alt1" horiz-adv-x="837" 
d="M838 489q0 -203 -140 -327t-306 -123q-168 0 -280 113t-112 259t95 241q95 96 219 96t206 -80q80 -80 80 -192t-83 -178t-185 -52q-33 6 -52 33q-18 27 -14 59t31 52q27 19 57 14q30 -4 58 14t28 60t-33 76q-35 34 -93 34t-106 -48t-48 -129t66 -147t159 -65
q137 0 215 92t78 187q0 96 -62 156t-162 118t-136 81q-119 80 -154 155q-23 48 -23 106q0 106 74 173t191 66q76 0 139 -35q6 29 28 48q23 18 54 18t55 -24t23 -56v-246q0 -32 -24 -56q-25 -24 -57 -24t-56 24t-23 56v47q-59 88 -139 89q-104 0 -105 -80q0 -46 45 -84
q44 -38 138 -92t136 -82t101 -82q117 -105 117 -265z" />
    <glyph glyph-name="t.alt1" horiz-adv-x="368" 
d="M627 1688q33 0 57 -24t23 -56q0 -32 -24 -57q-24 -24 -56 -23q-143 0 -361 -58v-1067q33 1 57 -23q23 -24 23 -56t-24 -57q-24 -24 -56 -23h-160q-32 0 -56 24t-23 56q-1 32 23 56t56 23v1022q-217 -57 -358 -57q-36 0 -58 23t-22 57t24 56q24 24 56 24q129 0 418 80
t461 80z" />
    <glyph glyph-name="v.alt1" horiz-adv-x="1085" 
d="M985 1325q33 1 57 -23t23 -57q0 -33 -24 -57t-56 -23h-24l-336 -878q-21 -51 -75 -51t-75 51l-350 878h-25q-32 0 -56 24q-24 25 -24 57t23 56t57 23h160q32 1 56 -23t24 -66t-45 -62l254 -637l242 637q-45 20 -45 62t22 66q23 24 57 23h160z" />
    <glyph glyph-name="w.alt1" horiz-adv-x="1380" 
d="M1280 1325q32 1 56 -23t24 -57t-24 -57t-56 -23h-18l-242 -870q-14 -55 -70 -58t-80 50l-147 354l-170 -358q-25 -49 -79 -46t-71 54l-280 874h-23q-32 0 -56 24q-24 25 -24 57t23 56t57 23h160q32 1 56 -23t24 -57q0 -55 -51 -74l207 -639l145 308l-33 82q-12 30 0 60
t43 43t62 0t43 -44l172 -418l168 606q-55 16 -56 76q0 33 23 57t57 23h160z" />
    <glyph glyph-name="x.alt1" horiz-adv-x="1032" 
d="M1171 1626q33 0 57 -24t24 -56t-24 -56t-57 -24q-70 0 -229 -200q-109 -137 -313 -451l258 -414h26q33 1 57 -23t24 -56t-24 -57q-24 -24 -57 -23h-159q-33 0 -57 24q-23 24 -23 62q0 39 35 61l-177 279q-236 -358 -379 -520q-144 -161 -270 -160q-35 0 -57 22t-23 57
q0 33 24 57t56 23q68 0 230 201q106 131 325 469l-219 348h-29q-32 0 -56 24q-24 25 -24 57t23 56t57 23h160q35 1 58 -23q22 -24 22 -61t-33 -59l138 -219q229 351 370 507t266 156z" />
    <glyph glyph-name="y.alt1" horiz-adv-x="1040" 
d="M565 403q33 1 57 -23t24 -56t-24 -57q-24 -24 -57 -23h-159q-33 0 -57 24t-23 56q0 32 24 56t56 23v336l-271 426h-35q-32 0 -56 24q-24 25 -24 57t23 56t57 23h160q54 0 74 -51t-21 -88l189 -299q59 63 114 163t99 185q43 86 96 170q116 184 322 221q33 6 61 -13t32 -52
t-14 -60t-51 -33q-100 -18 -177 -103t-121 -188t-123 -235t-175 -217v-322z" />
    <glyph glyph-name="z.alt1" horiz-adv-x="923" 
d="M1155 -8q-95 0 -197 24t-163 50q-61 25 -217 95t-260 89q-105 18 -201 -4q-55 -10 -84 36t4 89l596 794h-408q1 -33 -23 -57t-57 -23q-33 0 -57 24t-22 56v80q0 33 22 57q23 24 57 23h646q51 0 71 -43q23 -41 -6 -84l-588 -782q158 -10 428 -133q96 -43 144 -63t140 -45
q246 -70 511 61q31 14 61 4t46 -40q14 -30 4 -62t-41 -46q-203 -100 -406 -100z" />
    <glyph glyph-name="e.alt2" 
d="M100 1165q-32 0 -56 24q-24 25 -24 57t24 56t56 23h566q32 1 56 -23t23 -57v-86q1 -33 -23 -57t-56 -23q-32 0 -57 24q-24 24 -23 56v6h-326v-329q119 80 283 79q33 1 57 -23t23 -56q0 -32 -23 -57q-23 -24 -57 -23q-121 0 -200 -58t-83 -170v-125q172 -6 438 -129
q98 -45 152 -65q54 -21 137 -39q153 -34 338 53q29 14 61 3t46 -41q14 -29 3 -61t-42 -46q-158 -76 -307 -76t-314 65q-53 21 -130 57q-99 46 -204 84q-163 59 -321 23q-33 -7 -61 11t-33 51q-8 33 11 63t66 35v774z" />
    <glyph glyph-name="k.alt2" horiz-adv-x="1058" 
d="M1272 -215q-261 0 -474 372q-44 75 -68 123q-116 235 -192 342q-77 107 -143 164q-125 -143 -135 -153v-232q36 -1 58 -23t22 -56t-24 -57q-24 -24 -56 -23h-160q-32 0 -56 24t-24 57q0 35 23 57t57 21v764q-36 0 -58 24q-22 25 -22 57t24 56t56 23h160q32 1 56 -23
t24 -57t-24 -57t-56 -23v-293q313 356 377 426q23 25 55 27q32 1 58 -21q24 -22 26 -54t-18 -58l-256 -287q76 -68 144 -161q68 -94 106 -160q36 -66 98 -186t96 -182q34 -60 101 -137q66 -77 141 -114q53 -20 86 -19q111 3 162 89q33 55 17 113q-15 58 -71 88q-36 16 -72 4
t-52 -44t-49 -42t-61 4t-38 46t4 60q48 94 146 127t192 -14q111 -53 150 -170q52 -156 -54 -289t-276 -133z" />
    <glyph glyph-name="m_o" horiz-adv-x="2027" 
d="M1858 893q0 121 -68 207t-164 88q74 -49 87 -135t-39 -160t-146 -64q-33 4 -53 29q-21 26 -19 58t28 54t60 17q0 2 2 4q16 23 3 49t-42 21q-59 -10 -86 -47q-47 -68 -29 -176t78 -172q61 -64 152 -68q98 2 167 88t69 207zM1622 1348q164 0 280 -134t116 -320
q0 -187 -116 -322q-116 -134 -280 -134h-4q-148 8 -252 108t-133 269q-29 168 59 293q51 68 128 96t141 13q-33 39 -12 85q22 46 73 46zM1617 115q-226 0 -409 149q-203 168 -202 426v346l-314 -352q-22 -27 -58 -27t-61 27q-2 2 -156 176q-155 174 -157 176v-635
q32 1 56 -23t24 -56t-24 -57q-24 -24 -56 -23h-160q-32 0 -56 24t-24 57q0 35 23 57t57 21v844q0 55 52 75t88 -22l393 -440l393 440q35 41 87 22t52 -75v-555q-1 -182 141 -299t312 -117t293 105q27 19 59 17t54 -28t19 -59t-30 -53q-170 -141 -396 -141z" />
    <glyph glyph-name="r.alt2" horiz-adv-x="796" 
d="M598 1040q0 54 -40 90q-40 37 -101 35h-197v-288q52 19 150 39t143 45t45 79zM1174 -82q-237 0 -373 142q-47 50 -80 95t-76 141q-43 95 -83 205q-40 111 -82 175t-103 67q-98 -20 -117 -43v-299q32 1 56 -23t24 -58t-23 -56q-23 -23 -57 -22h-160q-32 0 -56 24t-24 56
t24 56t56 23v764q-32 0 -56 24q-24 25 -24 57t23 56t57 23h355q129 2 216 -82t87 -211q0 -162 -174 -231q61 -72 149 -301t145 -290q88 -94 158 -113t138 -19q154 0 278 74q29 16 62 7t47 -38q16 -27 8 -60t-37 -49q-164 -94 -358 -94z" />
    <glyph glyph-name="t.alt2" horiz-adv-x="507" 
d="M698 1704q-92 0 -362 -137q2 -8 2 -21v-1143q32 1 56 -23t24 -56t-23 -57q-23 -24 -57 -23h-160q-32 0 -56 24t-24 56t24 56t56 23v1084q-215 -103 -350 -103t-244 66q-29 16 -36 49q-6 33 10 62t49 35t61 -9q114 -70 250 -28q135 42 289 121q155 79 211 106
q163 78 274 78q110 0 186 -74t74 -172q0 -98 -64 -163t-140 -65t-126 36t-66 82t-1 74q14 30 46 40t62 -4t39 -45q6 -21 29 -23t42 16t19 50t-27 60q-28 28 -67 28z" />
    <glyph glyph-name="numbersign.alt1" horiz-adv-x="2752" 
d="M2566 0h-729q-33 0 -57 24t-23 56q0 32 24 56t56 24h729q32 0 56 -24t24 -58t-22 -56t-58 -22zM2202 582q147 2 250 130t104 308q0 106 -37 195t-92 139q-175 158 -342 100q82 -14 137 -63q76 -66 86 -166q10 -99 -54 -191t-181 -82q-55 6 -73 52t8 88q28 41 81 36
q18 -2 32 22q13 24 11 56t-29 56q-27 22 -65 16q-119 -18 -161 -118q-43 -100 -19 -242t118 -235t226 -101zM2202 1632q218 0 374 -179t156 -433t-156 -434t-376 -180h-5q-199 8 -337 143t-178 365t79 393q47 63 115 100q-20 49 14 84q129 141 312 141h2zM1446 102
q0 -71 -80 -79q-47 0 -70 43q-271 509 -561 848q-226 267 -411 423v-1177h67q35 0 58 -23t23 -57t-24 -58q-22 -22 -57 -22h-291q-36 0 -58 23t-22 57t23 58q23 22 57 22h64v1341q0 45 41 69t74 4t73 -50q40 -29 150 -128q112 -99 222 -220t266 -328t296 -442v1015h-63
q-33 0 -57 24q-24 25 -24 57t24 56t57 23h293q32 1 56 -23t24 -57t-24 -57t-56 -23h-70v-1319z" />
    <glyph glyph-name="l_e" horiz-adv-x="1867" 
d="M1260 -125q-88 0 -200 35q-112 34 -180 66t-170 84q-277 142 -393 173q-117 30 -190 5q-33 -10 -63 5t-38 47q-9 32 7 63t69 44v768q-34 0 -56 24q-22 25 -22 57t24 56t56 23h160q33 1 57 -23q23 -24 23 -57t-24 -57t-56 -23h-2v-759q135 -15 320 -104q61 -30 180 -90
t174 -86q54 -26 154 -58t170 -33q135 0 218 53t109 127q39 119 -22 207q-41 59 -135 59q-49 0 -84 -35t-35 -76q-1 -42 23 -64t48 -22t42 11q18 10 50 1t47 -38q15 -28 6 -60t-45 -52t-91 -21q-98 0 -169 70t-71 176t82 188t197 82q176 0 264 -127q51 -70 62 -166t-17 -184
q-47 -133 -175 -211t-304 -78zM494 571v594q-33 0 -57 24q-23 25 -23 57t23 56q24 24 57 23h589q35 1 58 -23t22 -57v-86q1 -33 -23 -57t-57 -23q-33 0 -57 24t-22 56v6h-351v-219h285q32 0 56 -24t24 -56t-24 -56t-56 -24h-285v-264q35 -14 125 -56t144 -58q4 35 29 55
q26 20 59 16q33 -5 53 -29t18 -57v-74q2 -37 -22 -65q-25 -25 -58 -25h-6q-109 7 -277 89t-222 92q-95 18 -80 98q6 27 27 45q22 18 51 18z" />
    <glyph glyph-name="l_e.alt3" horiz-adv-x="1544" 
d="M1655 520q1 -221 -185 -366t-430 -146q-154 0 -345 56t-353 113q-162 56 -242 56q-32 0 -56 24q-24 23 -24 57t23 57t57 22v772q-34 0 -56 24q-22 25 -22 57t24 56t56 23h160q32 1 56 -23t24 -57t-24 -57t-56 -23h-2v-794q76 -17 232 -73q364 -130 543 -130t320 100
q140 100 140 252q0 119 -76 208t-217 89q-66 0 -112 -47q-46 -46 -48 -110q0 -64 52 -97t104 -4q51 29 92 -24q20 -23 18 -54t-22 -53q-121 -123 -297 -123q-113 -1 -277 53t-208 54q-45 0 -69 24t-23 56q0 32 24 56t56 23v594q-33 0 -57 24q-23 25 -23 57t23 56
q24 24 57 23h577q37 5 65 -19t27 -61v-86q1 -33 -23 -57t-56 -23q-32 0 -56 24t-25 62h-350v-241q84 55 170 84q33 8 61 -8t38 -47t-6 -61t-63 -43q-48 -13 -124 -67t-76 -82v-157q14 -3 43 -13q181 -59 271 -65q-82 81 -82 203t93 216t226 93q217 -1 342 -148
q111 -127 111 -309z" />
    <glyph glyph-name="T.alt1" horiz-adv-x="1073" 
d="M1173 1561q104 0 134 110q11 33 -9 52t-41 8q-4 -2 -4 -7q-3 -38 -29 -62t-62 -22t-62 29t-23 64q6 117 116 163t208 -28q53 -41 75 -108t1 -136q-37 -147 -168 -209q-158 -74 -389 25v-873q-2 -57 1 -119q6 -123 -58 -254q-28 -58 -88 -106t-145 -75q-85 -26 -168 -2
t-136 89q-92 115 -39 248t190 144q37 2 65 -22t30 -60t-22 -63q-24 -28 -55 -31t-40 -21q-29 -51 14 -92t106 -21q96 31 135 98q38 67 35 242v998q-190 72 -366 47h-2q-109 -11 -157 -63t-43 -108t35 -90q30 -32 72 -30t68 -24t30 -62q3 -36 -24 -63q-27 -28 -73 -27
q-113 0 -194 78t-90 204t81 230q100 109 276 129q293 37 600 -127q111 -53 215 -53z" />
    <glyph glyph-name="r.last" horiz-adv-x="796" 
d="M553 963q45 25 45 85t-64 99q-38 20 -117 20l-157 -2v-286q52 19 150 39t143 45zM930 334q0 142 100 242t256 100t276 -119t119 -289q0 -203 -143 -347t-346 -144q-159 0 -260 67q-53 35 -96 72t-80 96q-37 60 -63 104q-44 75 -156 422q-65 200 -113 218h-4
q-145 -35 -160 -54v-301q36 -1 58 -23t22 -56t-24 -57q-24 -24 -56 -23h-160q-32 0 -56 24t-24 56t24 56t56 23v764q-32 0 -56 24q-24 25 -24 57t23 56t57 23h355q127 4 215 -81t88 -210q0 -158 -162 -227q46 -72 100 -239q54 -168 76 -232t66 -151q43 -87 87 -133
q43 -46 113 -81t154 -34q137 0 233 97t97 234q0 102 -73 175t-162 73t-143 -53t-54 -129q0 -41 24 -75t60 -46q35 -12 49 -43q14 -32 3 -62t-41 -44t-61 -5q-88 31 -141 107t-53 168z" />
    <glyph glyph-name="W.alt1" horiz-adv-x="1746" 
d="M1681 1759q4 84 -28 86q-20 -2 -23 -24q0 -35 51 -62zM1247 97q1 -45 -25 -71t-60 -26t-58 19t-31 53q-29 172 -137 506q-4 16 -8 24q-178 -356 -178 -516q0 -32 -23 -58t-55 -29t-60 16q-27 19 -34 53l-306 1337h-10q-34 0 -60 -26q-26 -27 -26 -71t-44 -67t-88 0
t-44 78q0 109 77 185t185 77h160q47 0 72 -36q24 -36 12 -78t-55 -58l217 -950q59 141 186 383q-43 170 -48 234q-6 64 18 92t61 30t63 -22t31 -58q12 -139 125 -487l61 -191q49 128 233 538t244 605q-45 20 -77 41q-111 78 -111 197q0 82 60 142t138 60t135 -57
q56 -56 64 -124t2 -120q75 0 305 31t404 47t379 -10q35 -6 57 -37t14 -65q-7 -34 -37 -57q-30 -22 -67 -13q-170 32 -588 -22t-503 -48q-63 -215 -291 -712q-83 -187 -138 -314q-55 -126 -98 -252t-43 -173z" />
    <glyph glyph-name="V.alt1" horiz-adv-x="1425" 
d="M1219 1761q0 88 -33 88q-20 -2 -19 -28q7 -33 52 -60zM696 2h-18q-30 0 -54 18t-30 50l-322 1337q-48 0 -72 -26q-24 -25 -24 -61t-26 -62t-62 -26t-62 26t-26 63q0 109 77 185t185 77h160q36 1 62 -25t26 -63q0 -61 -57 -82l237 -997q47 127 240 555t250 614
q-84 35 -137 97q-52 62 -52 144q1 82 61 140q60 59 138 59t134 -57q83 -85 67 -244q74 0 304 31t404 47t379 -8q37 -8 57 -38q19 -30 13 -66t-37 -56t-66 -14q-173 32 -589 -22t-502 -48q-52 -176 -198 -504t-259 -592q-113 -265 -113 -364q0 -36 -26 -62t-62 -26z" />
    <glyph glyph-name="n.last" horiz-adv-x="1101" 
d="M1060 1438q24 0 43 11t21 21q0 47 -53 48q-43 0 -63 -72q28 -8 52 -8zM1001 324q1 -80 -89 -80q-28 0 -52 28l-600 748v-617q32 1 56 -23t24 -56t-24 -57q-24 -24 -56 -23h-160q-36 0 -58 24t-22 56t24 56t56 23v842q0 59 54 76q53 20 88 -25l600 -745v332l-2 450
q-6 -1 -74 23t-144 48t-203 42q-128 18 -226 4q-33 -4 -60 15t-32 53t15 60t52 30q57 16 147 9q89 -7 145 -12q103 -9 396 -108q12 43 33 74q67 106 171 106t164 -58q60 -57 60 -143t-68 -142t-161 -56q-25 0 -56 6l2 -401v-559z" />
    <glyph glyph-name="k.last" horiz-adv-x="839" 
d="M970 399q42 1 66 -23t23 -57q0 -33 -24 -57t-56 -22q-94 0 -181 70t-144 156q-56 87 -123 186t-113 136l-158 -163v-224q32 1 56 -23t24 -56t-24 -57q-24 -24 -56 -23h-160q-36 0 -58 22t-22 57q0 33 24 57t56 23v764q-32 0 -56 24q-24 25 -24 57t23 56t57 23h160
q32 1 56 -23t24 -57t-24 -57t-56 -23v-311q16 18 110 116t196 204q101 106 119 124q19 18 51 18q32 1 56 -22q24 -22 24 -56t-21 -56l-267 -279q82 -69 230 -305q50 -78 110 -138t102 -61z" />
    </font>
</defs>
</svg>
